<?xml version="1.0" encoding="UTF-8"?>
<svg xmlns="http://www.w3.org/2000/svg" width="620" height="372" fill="none">
  <path fill="#fff" fill-rule="evenodd" d="M613.799 372H6.201C2.135 351.967 0 331.233 0 310 0 138.792 138.792 0 310 0s310 138.792 310 310c0 21.233-2.135 41.967-6.201 62Z" clip-rule="evenodd"></path>
  <path fill="#0C2340" d="M183.447 126.925 173.111 155h-2.625l11.279-29.859h1.825l-.143 1.784ZM192.839 155l-10.356-28.075-.144-1.784h1.826L195.464 155h-2.625Zm-1.845-10.541v2.174h-15.853v-2.174h15.853ZM213.081 132.811h2.277v21.799c0 1.928-.369 3.582-1.108 4.963-.724 1.381-1.756 2.441-3.096 3.179-1.326.738-2.892 1.107-4.697 1.107a9.96 9.96 0 0 1-2.83-.43 9.717 9.717 0 0 1-2.727-1.272 8.314 8.314 0 0 1-2.174-2.092l1.374-1.497c.902 1.094 1.866 1.894 2.892 2.4a7.249 7.249 0 0 0 3.322.779c1.408 0 2.598-.28 3.568-.841.985-.56 1.73-1.367 2.236-2.42.519-1.052.779-2.317.779-3.794v-17.001l.184-4.88Zm-15.585 11.32v-.431c0-1.722.191-3.274.574-4.655.396-1.395.964-2.584 1.702-3.568.738-.998 1.634-1.757 2.686-2.277 1.067-.533 2.27-.8 3.61-.8 1.285 0 2.427.212 3.425.636a7.355 7.355 0 0 1 2.584 1.825c.724.793 1.305 1.737 1.743 2.83.451 1.094.779 2.311.984 3.651v5.475a13.587 13.587 0 0 1-.902 3.466 9.251 9.251 0 0 1-1.743 2.728 7.534 7.534 0 0 1-2.625 1.784c-1.012.41-2.181.615-3.507.615s-2.516-.273-3.569-.82a7.767 7.767 0 0 1-2.686-2.318c-.738-1.011-1.306-2.208-1.702-3.588-.383-1.381-.574-2.899-.574-4.553Zm2.46-.431v.431c0 1.299.13 2.502.39 3.609.26 1.108.656 2.072 1.19 2.892a5.826 5.826 0 0 0 2.03 1.928c.82.464 1.784.697 2.891.697 1.409 0 2.591-.267 3.548-.8a6.393 6.393 0 0 0 2.277-2.153c.56-.903.97-1.887 1.23-2.953v-6.378a12.138 12.138 0 0 0-.697-2.215 7.224 7.224 0 0 0-1.272-2.071c-.533-.643-1.216-1.156-2.05-1.539-.821-.396-1.819-.594-2.995-.594-1.121 0-2.098.232-2.932.697a5.761 5.761 0 0 0-2.03 1.948c-.534.821-.93 1.784-1.19 2.892-.26 1.107-.39 2.31-.39 3.609ZM229.509 155.41c-1.449 0-2.782-.266-3.999-.8a9.548 9.548 0 0 1-3.158-2.256c-.889-.97-1.579-2.119-2.071-3.445-.479-1.34-.718-2.803-.718-4.388v-.882c0-1.709.253-3.254.759-4.635.505-1.381 1.203-2.564 2.091-3.548.889-.984 1.901-1.736 3.036-2.256a8.472 8.472 0 0 1 3.609-.8c1.408 0 2.659.253 3.753.759a7.342 7.342 0 0 1 2.748 2.112c.752.903 1.319 1.976 1.702 3.22.383 1.231.574 2.591.574 4.081v1.497h-16.796v-2.091h14.356v-.288a9.01 9.01 0 0 0-.759-3.486 6.3 6.3 0 0 0-2.092-2.666c-.929-.684-2.092-1.025-3.486-1.025-1.039 0-1.996.218-2.871.656-.862.437-1.607 1.066-2.236 1.887-.615.806-1.093 1.77-1.435 2.891-.328 1.108-.492 2.338-.492 3.692v.882c0 1.23.177 2.378.533 3.445a8.96 8.96 0 0 0 1.559 2.789 7.356 7.356 0 0 0 2.419 1.887c.93.451 1.956.676 3.077.676 1.312 0 2.474-.239 3.486-.717 1.012-.493 1.921-1.265 2.727-2.318l1.539 1.19a9.368 9.368 0 0 1-1.805 1.968c-.711.602-1.566 1.08-2.564 1.436-.998.355-2.16.533-3.486.533ZM244.276 137.548V155h-2.441v-22.189h2.338l.103 4.737Zm-.554 4.983-1.087-.615c.082-1.312.349-2.543.8-3.691a10.248 10.248 0 0 1 1.825-3.036 8.477 8.477 0 0 1 2.727-2.05c1.053-.493 2.215-.739 3.487-.739 1.107 0 2.098.151 2.973.452a5.43 5.43 0 0 1 2.236 1.435c.615.656 1.08 1.497 1.394 2.523.328 1.025.492 2.276.492 3.752V155h-2.46v-14.458c0-1.531-.212-2.728-.636-3.589-.424-.875-1.026-1.497-1.805-1.866-.779-.369-1.702-.554-2.768-.554-1.176 0-2.208.26-3.097.779a7.17 7.17 0 0 0-2.215 1.99 9.66 9.66 0 0 0-1.354 2.604c-.314.916-.485 1.791-.512 2.625ZM278.504 150.693V123.5h2.461V155h-2.297l-.164-4.307Zm-15.402-6.562v-.431c0-1.722.199-3.274.595-4.655.397-1.395.964-2.584 1.702-3.568.752-.998 1.655-1.757 2.707-2.277 1.053-.533 2.243-.8 3.569-.8 1.299 0 2.447.212 3.445.636a7.156 7.156 0 0 1 2.564 1.825c.724.793 1.305 1.737 1.743 2.83.451 1.094.779 2.311.984 3.651v5.475a13.587 13.587 0 0 1-.902 3.466 9.251 9.251 0 0 1-1.743 2.728 7.534 7.534 0 0 1-2.625 1.784c-1.012.41-2.181.615-3.507.615-1.313 0-2.495-.273-3.548-.82a7.77 7.77 0 0 1-2.687-2.318c-.738-1.011-1.305-2.208-1.702-3.588-.396-1.381-.595-2.899-.595-4.553Zm2.461-.431v.431c0 1.299.13 2.502.39 3.609.26 1.108.656 2.072 1.19 2.892a5.818 5.818 0 0 0 2.03 1.928c.82.464 1.791.697 2.912.697 1.408 0 2.591-.267 3.548-.8a6.573 6.573 0 0 0 2.297-2.153 9.786 9.786 0 0 0 1.251-2.953v-6.378a13.468 13.468 0 0 0-.718-2.215 7.616 7.616 0 0 0-1.292-2.071c-.533-.643-1.217-1.156-2.051-1.539-.82-.396-1.818-.594-2.994-.594-1.135 0-2.112.232-2.933.697a5.927 5.927 0 0 0-2.05 1.948c-.534.821-.93 1.784-1.19 2.892-.26 1.107-.39 2.31-.39 3.609ZM300.079 151.021v-11.443c0-1.053-.219-1.962-.656-2.727-.438-.766-1.08-1.354-1.928-1.764-.848-.41-1.894-.615-3.138-.615-1.148 0-2.174.205-3.076.615-.889.396-1.593.936-2.112 1.62a3.62 3.62 0 0 0-.759 2.235l-2.461-.02c0-.834.205-1.641.615-2.42.41-.779.991-1.477 1.743-2.092.752-.615 1.648-1.1 2.687-1.456 1.053-.369 2.208-.554 3.466-.554 1.586 0 2.98.267 4.183.8 1.217.533 2.167 1.333 2.851 2.4.684 1.066 1.025 2.406 1.025 4.019v10.726c0 .765.055 1.558.164 2.379.123.82.294 1.497.513 2.03V155h-2.604c-.164-.492-.294-1.107-.39-1.846a19.72 19.72 0 0 1-.123-2.133Zm.574-8.941.041 1.887h-4.819c-1.258 0-2.386.116-3.384.348-.984.219-1.818.547-2.502.985-.684.424-1.21.936-1.579 1.538-.356.601-.533 1.285-.533 2.051 0 .793.198 1.517.594 2.173.411.657.985 1.183 1.723 1.58.752.382 1.641.574 2.666.574 1.367 0 2.57-.253 3.61-.759 1.052-.506 1.92-1.169 2.604-1.989.684-.821 1.142-1.716 1.374-2.687l1.066 1.415c-.177.684-.505 1.388-.984 2.113-.465.711-1.073 1.38-1.825 2.009-.752.616-1.641 1.121-2.666 1.518-1.012.383-2.16.574-3.445.574-1.45 0-2.714-.273-3.794-.82-1.067-.547-1.901-1.292-2.502-2.236-.588-.957-.882-2.037-.882-3.24 0-1.093.232-2.071.697-2.932.465-.875 1.135-1.614 2.01-2.215.889-.615 1.955-1.08 3.199-1.395 1.258-.328 2.666-.492 4.225-.492h5.106ZM326.064 132.811v2.009h-11.115v-2.009h11.115Zm-7.034-5.702h2.44v22.497c0 1.026.137 1.798.41 2.318.274.519.629.868 1.067 1.046.437.177.909.266 1.415.266.369 0 .724-.02 1.066-.061.342-.055.65-.11.923-.164l.103 2.071a6.343 6.343 0 0 1-1.169.226c-.479.068-.957.102-1.436.102-.943 0-1.777-.171-2.502-.513-.724-.355-1.292-.957-1.702-1.804-.41-.862-.615-2.031-.615-3.507v-22.477ZM344.583 149.873v-17.062h2.461V155h-2.358l-.103-5.127Zm.451-4.102 1.272-.041c0 1.395-.164 2.68-.492 3.856-.328 1.176-.841 2.201-1.538 3.076-.698.875-1.6 1.552-2.707 2.03-1.108.479-2.441.718-3.999.718-1.08 0-2.072-.15-2.974-.451a5.829 5.829 0 0 1-2.297-1.477c-.642-.67-1.141-1.538-1.497-2.604-.342-1.066-.513-2.358-.513-3.876v-14.191h2.441v14.232c0 1.189.13 2.181.389 2.974.274.793.643 1.428 1.108 1.907.478.478 1.025.82 1.64 1.025a6.263 6.263 0 0 0 1.99.308c1.804 0 3.226-.349 4.265-1.046 1.053-.697 1.798-1.613 2.236-2.748a10.01 10.01 0 0 0 .676-3.692ZM370.22 153.298a7.395 7.395 0 0 0 2.912-.574 5.595 5.595 0 0 0 2.256-1.744c.601-.779.943-1.729 1.025-2.85h2.338c-.068 1.408-.499 2.666-1.292 3.773-.779 1.094-1.805 1.955-3.076 2.584-1.258.616-2.646.923-4.163.923-1.545 0-2.912-.28-4.102-.841a8.246 8.246 0 0 1-2.953-2.338c-.793-1.011-1.394-2.187-1.805-3.527-.396-1.353-.594-2.809-.594-4.368v-.861c0-1.559.198-3.008.594-4.348.411-1.354 1.012-2.529 1.805-3.527a8.162 8.162 0 0 1 2.953-2.359c1.176-.56 2.536-.841 4.081-.841 1.586 0 3.008.322 4.266.964a7.607 7.607 0 0 1 3.035 2.728c.766 1.176 1.183 2.57 1.251 4.183h-2.338c-.068-1.189-.383-2.214-.943-3.076a5.654 5.654 0 0 0-2.215-1.989c-.916-.465-1.935-.697-3.056-.697-1.258 0-2.331.246-3.22.738a5.952 5.952 0 0 0-2.173 1.989c-.547.834-.951 1.791-1.21 2.871a14.162 14.162 0 0 0-.39 3.364v.861c0 1.189.123 2.324.369 3.404.26 1.067.663 2.017 1.21 2.851a6.198 6.198 0 0 0 2.174 1.989c.902.479 1.989.718 3.261.718ZM385.581 132.811V155h-2.441v-22.189h2.441Zm-2.871-6.419c0-.465.143-.855.43-1.169.301-.328.711-.493 1.231-.493.519 0 .93.165 1.23.493.315.314.472.704.472 1.169 0 .451-.157.84-.472 1.169-.3.314-.711.471-1.23.471-.52 0-.93-.157-1.231-.471a1.719 1.719 0 0 1-.43-1.169ZM399.835 132.811v2.009h-11.116v-2.009h11.116Zm-7.035-5.702h2.441v22.497c0 1.026.137 1.798.41 2.318.273.519.629.868 1.066 1.046.438.177.91.266 1.416.266.369 0 .724-.02 1.066-.061.342-.055.649-.11.923-.164l.102 2.071c-.3.096-.69.171-1.169.226-.478.068-.957.102-1.435.102-.944 0-1.778-.171-2.502-.513-.725-.355-1.292-.957-1.702-1.804-.41-.862-.616-2.031-.616-3.507v-22.477ZM417.636 151.021v-11.443c0-1.053-.219-1.962-.656-2.727-.438-.766-1.08-1.354-1.928-1.764-.847-.41-1.893-.615-3.137-.615-1.149 0-2.174.205-3.077.615-.888.396-1.592.936-2.112 1.62a3.62 3.62 0 0 0-.759 2.235l-2.461-.02c0-.834.205-1.641.616-2.42.41-.779.991-1.477 1.743-2.092.752-.615 1.647-1.1 2.686-1.456 1.053-.369 2.208-.554 3.466-.554 1.586 0 2.981.267 4.184.8 1.216.533 2.167 1.333 2.85 2.4.684 1.066 1.026 2.406 1.026 4.019v10.726c0 .765.054 1.558.164 2.379.123.82.294 1.497.512 2.03V155h-2.604c-.164-.492-.294-1.107-.39-1.846a19.72 19.72 0 0 1-.123-2.133Zm.574-8.941.041 1.887h-4.819c-1.258 0-2.386.116-3.384.348-.984.219-1.818.547-2.502.985-.683.424-1.21.936-1.579 1.538-.355.601-.533 1.285-.533 2.051 0 .793.198 1.517.595 2.173.41.657.984 1.183 1.722 1.58.752.382 1.641.574 2.666.574 1.368 0 2.571-.253 3.61-.759 1.053-.506 1.921-1.169 2.604-1.989.684-.821 1.142-1.716 1.374-2.687l1.067 1.415c-.178.684-.506 1.388-.985 2.113-.464.711-1.073 1.38-1.825 2.009-.752.616-1.64 1.121-2.666 1.518-1.012.383-2.16.574-3.445.574-1.449 0-2.714-.273-3.794-.82-1.066-.547-1.9-1.292-2.502-2.236-.588-.957-.882-2.037-.882-3.24 0-1.093.233-2.071.697-2.932.465-.875 1.135-1.614 2.01-2.215.889-.615 1.955-1.08 3.199-1.395 1.258-.328 2.666-.492 4.225-.492h5.106ZM441.817 152.785l6.911-19.974h2.645l-9.392 25.757a20.05 20.05 0 0 1-.739 1.682 7.822 7.822 0 0 1-1.148 1.764 5.254 5.254 0 0 1-1.764 1.394c-.697.369-1.551.554-2.563.554-.26 0-.595-.034-1.005-.103a5.877 5.877 0 0 1-.861-.164l-.021-2.071c.15.041.369.075.656.103.287.027.486.041.595.041.889 0 1.634-.151 2.235-.452a3.93 3.93 0 0 0 1.538-1.353c.411-.588.773-1.326 1.087-2.215l1.826-4.963Zm-6.46-19.974 7.075 19.051.656 2.564-1.784 1.005-8.613-22.62h2.666ZM117.153 202.298c1.039 0 2.01-.192 2.912-.574a5.595 5.595 0 0 0 2.256-1.744c.602-.779.944-1.729 1.026-2.85h2.338c-.069 1.408-.499 2.666-1.292 3.773-.78 1.094-1.805 1.955-3.077 2.584-1.257.616-2.645.923-4.163.923-1.545 0-2.912-.28-4.101-.841a8.246 8.246 0 0 1-2.953-2.338c-.793-1.011-1.395-2.187-1.805-3.527-.397-1.353-.595-2.809-.595-4.368v-.861c0-1.559.198-3.008.595-4.348.41-1.354 1.012-2.529 1.805-3.527a8.162 8.162 0 0 1 2.953-2.359c1.176-.56 2.536-.841 4.081-.841 1.586 0 3.008.322 4.265.964a7.603 7.603 0 0 1 3.036 2.728c.765 1.176 1.182 2.57 1.251 4.183h-2.338c-.069-1.189-.383-2.214-.944-3.076a5.648 5.648 0 0 0-2.215-1.989c-.916-.465-1.934-.697-3.055-.697-1.258 0-2.331.246-3.22.738a5.955 5.955 0 0 0-2.174 1.989c-.547.834-.95 1.791-1.21 2.871a14.214 14.214 0 0 0-.389 3.364v.861c0 1.189.123 2.324.369 3.404.26 1.067.663 2.017 1.21 2.851a6.19 6.19 0 0 0 2.174 1.989c.902.479 1.989.718 3.26.718ZM128.433 193.254v-.677c0-1.613.233-3.103.698-4.471.465-1.367 1.128-2.549 1.989-3.547a9.07 9.07 0 0 1 3.138-2.318c1.216-.56 2.57-.841 4.06-.841 1.504 0 2.864.281 4.081.841a9.07 9.07 0 0 1 3.138 2.318c.875.998 1.545 2.18 2.01 3.547.465 1.368.697 2.858.697 4.471v.677c0 1.613-.232 3.103-.697 4.471-.465 1.353-1.135 2.529-2.01 3.527a9.09 9.09 0 0 1-3.117 2.338c-1.217.547-2.571.82-4.061.82-1.504 0-2.864-.273-4.081-.82a9.305 9.305 0 0 1-3.138-2.338c-.875-.998-1.544-2.174-2.009-3.527-.465-1.368-.698-2.858-.698-4.471Zm2.441-.677v.677c0 1.217.164 2.372.492 3.466a9.373 9.373 0 0 0 1.436 2.891 6.774 6.774 0 0 0 2.337 1.969c.93.479 2.003.718 3.22.718 1.203 0 2.263-.239 3.179-.718a6.768 6.768 0 0 0 2.338-1.969 9.052 9.052 0 0 0 1.415-2.891c.328-1.094.492-2.249.492-3.466v-.677c0-1.203-.164-2.345-.492-3.425a8.813 8.813 0 0 0-1.436-2.891 6.885 6.885 0 0 0-2.338-2.01c-.929-.492-1.996-.738-3.199-.738-1.203 0-2.269.246-3.199.738a7.158 7.158 0 0 0-2.338 2.01 9.371 9.371 0 0 0-1.435 2.891 12.175 12.175 0 0 0-.472 3.425ZM154.93 186.548V204h-2.44v-22.189h2.338l.102 4.737Zm-.553 4.983-1.087-.615c.082-1.312.348-2.543.8-3.691a10.248 10.248 0 0 1 1.825-3.036 8.477 8.477 0 0 1 2.727-2.05c1.053-.493 2.215-.739 3.487-.739 1.107 0 2.098.151 2.973.452.875.3 1.62.779 2.236 1.435.615.656 1.08 1.497 1.394 2.523.328 1.025.492 2.276.492 3.752V204h-2.461v-14.458c0-1.531-.212-2.728-.635-3.589-.424-.875-1.026-1.497-1.805-1.866-.779-.369-1.702-.554-2.769-.554-1.175 0-2.208.26-3.096.779a7.158 7.158 0 0 0-2.215 1.99 9.66 9.66 0 0 0-1.354 2.604c-.314.916-.485 1.791-.512 2.625ZM173.388 193.254v-.677c0-1.613.233-3.103.697-4.471.465-1.367 1.128-2.549 1.99-3.547a9.076 9.076 0 0 1 3.137-2.318c1.217-.56 2.571-.841 4.061-.841 1.504 0 2.864.281 4.081.841a9.07 9.07 0 0 1 3.138 2.318c.875.998 1.545 2.18 2.009 3.547.465 1.368.698 2.858.698 4.471v.677c0 1.613-.233 3.103-.698 4.471-.464 1.353-1.134 2.529-2.009 3.527a9.11 9.11 0 0 1-3.117 2.338c-1.217.547-2.571.82-4.061.82-1.504 0-2.864-.273-4.081-.82a9.305 9.305 0 0 1-3.138-2.338c-.875-.998-1.545-2.174-2.01-3.527-.464-1.368-.697-2.858-.697-4.471Zm2.441-.677v.677c0 1.217.164 2.372.492 3.466a9.371 9.371 0 0 0 1.435 2.891 6.777 6.777 0 0 0 2.338 1.969c.93.479 2.003.718 3.22.718 1.203 0 2.263-.239 3.179-.718a6.777 6.777 0 0 0 2.338-1.969 9.073 9.073 0 0 0 1.415-2.891c.328-1.094.492-2.249.492-3.466v-.677c0-1.203-.164-2.345-.492-3.425a8.813 8.813 0 0 0-1.436-2.891 6.885 6.885 0 0 0-2.338-2.01c-.929-.492-1.996-.738-3.199-.738-1.203 0-2.27.246-3.199.738a7.148 7.148 0 0 0-2.338 2.01 9.373 9.373 0 0 0-1.436 2.891 12.211 12.211 0 0 0-.471 3.425ZM205.627 202.298c1.039 0 2.01-.192 2.912-.574a5.595 5.595 0 0 0 2.256-1.744c.602-.779.944-1.729 1.026-2.85h2.338c-.069 1.408-.499 2.666-1.292 3.773-.78 1.094-1.805 1.955-3.077 2.584-1.257.616-2.645.923-4.163.923-1.545 0-2.912-.28-4.101-.841a8.246 8.246 0 0 1-2.953-2.338c-.793-1.011-1.395-2.187-1.805-3.527-.397-1.353-.595-2.809-.595-4.368v-.861c0-1.559.198-3.008.595-4.348.41-1.354 1.012-2.529 1.805-3.527a8.162 8.162 0 0 1 2.953-2.359c1.176-.56 2.536-.841 4.081-.841 1.586 0 3.008.322 4.265.964a7.603 7.603 0 0 1 3.036 2.728c.765 1.176 1.182 2.57 1.251 4.183h-2.338c-.069-1.189-.383-2.214-.944-3.076a5.648 5.648 0 0 0-2.215-1.989c-.916-.465-1.934-.697-3.055-.697-1.258 0-2.331.246-3.22.738a5.955 5.955 0 0 0-2.174 1.989c-.547.834-.95 1.791-1.21 2.871a14.214 14.214 0 0 0-.389 3.364v.861c0 1.189.123 2.324.369 3.404.26 1.067.663 2.017 1.21 2.851a6.19 6.19 0 0 0 2.174 1.989c.902.479 1.989.718 3.26.718ZM226.833 204.41c-1.449 0-2.782-.266-3.999-.8a9.548 9.548 0 0 1-3.158-2.256c-.889-.97-1.579-2.119-2.071-3.445-.479-1.34-.718-2.803-.718-4.388v-.882c0-1.709.253-3.254.759-4.635.506-1.381 1.203-2.564 2.092-3.548.888-.984 1.9-1.736 3.035-2.256a8.472 8.472 0 0 1 3.609-.8c1.408 0 2.659.253 3.753.759a7.342 7.342 0 0 1 2.748 2.112c.752.903 1.319 1.976 1.702 3.22.383 1.231.574 2.591.574 4.081v1.497h-16.796v-2.091h14.356v-.288a8.991 8.991 0 0 0-.759-3.486 6.3 6.3 0 0 0-2.092-2.666c-.929-.684-2.091-1.025-3.486-1.025-1.039 0-1.996.218-2.871.656-.861.437-1.607 1.066-2.235 1.887-.616.806-1.094 1.77-1.436 2.891-.328 1.108-.492 2.338-.492 3.692v.882c0 1.23.178 2.378.533 3.445a8.96 8.96 0 0 0 1.559 2.789 7.35 7.35 0 0 0 2.42 1.887c.929.451 1.955.676 3.076.676 1.312 0 2.474-.239 3.486-.717 1.012-.493 1.921-1.265 2.728-2.318l1.538 1.19a9.34 9.34 0 0 1-1.805 1.968c-.711.602-1.565 1.08-2.563 1.436-.999.355-2.161.533-3.487.533ZM258.294 181.811v3.896h-12.715v-3.896h12.715Zm-9.311-5.456h5.435v21.247c0 .656.089 1.162.266 1.517.178.356.445.595.8.718.356.123.78.184 1.272.184.355 0 .683-.02.984-.061.301-.041.554-.082.759-.123l.02 4.06c-.451.151-.963.274-1.538.37-.56.095-1.196.143-1.907.143-1.217 0-2.283-.205-3.199-.615-.916-.424-1.627-1.101-2.133-2.03-.506-.944-.759-2.188-.759-3.733v-21.677ZM274.27 198.729v-16.918h5.455V204h-5.127l-.328-5.271Zm.697-4.593 1.682-.041c0 1.49-.164 2.864-.492 4.122-.328 1.258-.841 2.351-1.538 3.281a7.137 7.137 0 0 1-2.605 2.153c-1.052.506-2.297.759-3.732.759-1.094 0-2.092-.15-2.994-.451a6.087 6.087 0 0 1-2.338-1.456c-.643-.67-1.142-1.524-1.497-2.564-.356-1.052-.533-2.317-.533-3.793v-14.335h5.414v14.376c0 .738.082 1.353.246 1.845.178.492.417.896.718 1.21.314.301.676.52 1.086.656.424.123.875.185 1.354.185 1.313 0 2.345-.26 3.097-.779a4.388 4.388 0 0 0 1.64-2.133c.328-.902.492-1.914.492-3.035ZM300.399 204h-5.455v-24.24c0-1.668.321-3.07.964-4.204a6.242 6.242 0 0 1 2.748-2.605c1.189-.588 2.59-.882 4.204-.882.533 0 1.039.035 1.517.103.493.068.978.164 1.456.287l-.102 4.122a5.152 5.152 0 0 0-.861-.143 10.923 10.923 0 0 0-1.005-.042c-.739 0-1.368.13-1.887.39-.52.26-.916.643-1.19 1.149-.259.492-.389 1.1-.389 1.825V204Zm4.491-22.189v3.896h-13.289v-3.896h13.289ZM320.6 198.729v-16.918h5.455V204h-5.127l-.328-5.271Zm.697-4.593 1.682-.041c0 1.49-.164 2.864-.492 4.122-.329 1.258-.841 2.351-1.539 3.281a7.126 7.126 0 0 1-2.604 2.153c-1.053.506-2.297.759-3.732.759-1.094 0-2.092-.15-2.995-.451a6.09 6.09 0 0 1-2.337-1.456c-.643-.67-1.142-1.524-1.498-2.564-.355-1.052-.533-2.317-.533-3.793v-14.335h5.414v14.376c0 .738.082 1.353.246 1.845.178.492.417.896.718 1.21.315.301.677.52 1.087.656.424.123.875.185 1.354.185 1.312 0 2.344-.26 3.096-.779a4.384 4.384 0 0 0 1.641-2.133c.328-.902.492-1.914.492-3.035ZM340.514 181.811v3.896h-12.715v-3.896h12.715Zm-9.311-5.456h5.435v21.247c0 .656.089 1.162.266 1.517.178.356.445.595.8.718.356.123.779.184 1.272.184.355 0 .683-.02.984-.061.301-.041.554-.082.759-.123l.02 4.06c-.451.151-.964.274-1.538.37-.56.095-1.196.143-1.907.143-1.217 0-2.283-.205-3.199-.615-.916-.424-1.627-1.101-2.133-2.03-.506-.944-.759-2.188-.759-3.733v-21.677ZM356.49 198.729v-16.918h5.455V204h-5.127l-.328-5.271Zm.697-4.593 1.682-.041c0 1.49-.164 2.864-.492 4.122-.328 1.258-.841 2.351-1.538 3.281a7.137 7.137 0 0 1-2.605 2.153c-1.052.506-2.297.759-3.732.759-1.094 0-2.092-.15-2.994-.451a6.087 6.087 0 0 1-2.338-1.456c-.643-.67-1.142-1.524-1.497-2.564-.356-1.052-.533-2.317-.533-3.793v-14.335h5.414v14.376c0 .738.082 1.353.246 1.845.177.492.417.896.718 1.21.314.301.676.52 1.086.656.424.123.875.185 1.354.185 1.312 0 2.345-.26 3.097-.779a4.388 4.388 0 0 0 1.64-2.133c.328-.902.492-1.914.492-3.035ZM371.318 186.343V204h-5.414v-22.189h5.127l.287 4.532Zm6.747-4.676-.082 5.045a9.432 9.432 0 0 0-1.025-.123 14.387 14.387 0 0 0-1.046-.041c-.834 0-1.566.116-2.194.348a4.114 4.114 0 0 0-1.58.964c-.41.424-.724.944-.943 1.559-.219.602-.342 1.285-.369 2.051l-1.169-.144c0-1.408.144-2.714.431-3.917.287-1.203.704-2.256 1.251-3.158.546-.902 1.23-1.6 2.05-2.092.834-.506 1.791-.759 2.871-.759.301 0 .623.028.964.082.356.041.636.103.841.185ZM378.661 193.131v-.431c0-1.627.232-3.124.697-4.491.465-1.381 1.142-2.577 2.03-3.589a9.133 9.133 0 0 1 3.261-2.358c1.285-.574 2.748-.862 4.389-.862 1.668 0 3.144.288 4.429.862 1.299.56 2.393 1.346 3.282 2.358.888 1.012 1.565 2.208 2.03 3.589.465 1.367.697 2.864.697 4.491v.431c0 1.613-.232 3.11-.697 4.491-.465 1.367-1.142 2.564-2.03 3.589a9.133 9.133 0 0 1-3.261 2.358c-1.285.561-2.755.841-4.409.841-1.641 0-3.111-.28-4.409-.841-1.299-.56-2.393-1.346-3.282-2.358-.888-1.025-1.565-2.222-2.03-3.589-.465-1.381-.697-2.878-.697-4.491Zm5.414-.431v.431c0 .971.096 1.88.287 2.727.191.848.485 1.593.882 2.236a4.412 4.412 0 0 0 1.538 1.517c.642.356 1.408.534 2.297.534.875 0 1.627-.178 2.256-.534a4.429 4.429 0 0 0 1.538-1.517c.41-.643.711-1.388.902-2.236.191-.847.287-1.756.287-2.727v-.431c0-.957-.096-1.852-.287-2.686-.191-.848-.492-1.593-.902-2.236a4.31 4.31 0 0 0-1.559-1.538c-.629-.383-1.388-.574-2.276-.574-.875 0-1.627.191-2.256.574a4.357 4.357 0 0 0-1.538 1.538c-.397.643-.691 1.388-.882 2.236a12.011 12.011 0 0 0-.287 2.686ZM417.504 172.5V204h-5.434v-31.5h5.434Zm-.861 19.605h-1.6c0-1.544.205-2.966.615-4.265.411-1.299.992-2.427 1.744-3.384a7.984 7.984 0 0 1 2.686-2.256c1.053-.533 2.215-.8 3.486-.8 1.094 0 2.085.158 2.974.472a5.632 5.632 0 0 1 2.318 1.456c.642.67 1.134 1.545 1.476 2.625.356 1.067.533 2.365.533 3.897V204h-5.455v-14.191c0-1.026-.15-1.832-.451-2.42-.301-.602-.731-1.033-1.292-1.292-.547-.26-1.224-.39-2.03-.39-.875 0-1.627.171-2.256.513a4.3 4.3 0 0 0-1.559 1.374 6.705 6.705 0 0 0-.902 2.03 10.234 10.234 0 0 0-.287 2.481ZM433.85 193.131v-.431c0-1.627.232-3.124.697-4.491.465-1.381 1.142-2.577 2.03-3.589a9.133 9.133 0 0 1 3.261-2.358c1.285-.574 2.748-.862 4.389-.862 1.668 0 3.144.288 4.429.862 1.299.56 2.393 1.346 3.282 2.358.888 1.012 1.565 2.208 2.03 3.589.465 1.367.697 2.864.697 4.491v.431c0 1.613-.232 3.11-.697 4.491-.465 1.367-1.142 2.564-2.03 3.589a9.133 9.133 0 0 1-3.261 2.358c-1.285.561-2.755.841-4.409.841-1.641 0-3.111-.28-4.409-.841-1.299-.56-2.393-1.346-3.282-2.358-.888-1.025-1.565-2.222-2.03-3.589-.465-1.381-.697-2.878-.697-4.491Zm5.414-.431v.431c0 .971.095 1.88.287 2.727.191.848.485 1.593.882 2.236a4.412 4.412 0 0 0 1.538 1.517c.642.356 1.408.534 2.297.534.875 0 1.627-.178 2.256-.534a4.429 4.429 0 0 0 1.538-1.517c.41-.643.711-1.388.902-2.236.191-.847.287-1.756.287-2.727v-.431c0-.957-.096-1.852-.287-2.686-.191-.848-.492-1.593-.902-2.236a4.31 4.31 0 0 0-1.559-1.538c-.629-.383-1.388-.574-2.276-.574-.875 0-1.627.191-2.256.574a4.357 4.357 0 0 0-1.538 1.538c-.397.643-.691 1.388-.882 2.236a11.953 11.953 0 0 0-.287 2.686ZM471.872 181.811h4.922v21.512c0 2.01-.438 3.712-1.313 5.107-.861 1.408-2.071 2.474-3.629 3.199-1.559.738-3.371 1.107-5.435 1.107-.889 0-1.853-.123-2.892-.369a11.704 11.704 0 0 1-2.973-1.169 7.35 7.35 0 0 1-2.359-2.03l2.441-3.199c.738.861 1.572 1.51 2.502 1.948a6.81 6.81 0 0 0 3.014.677c1.094 0 2.024-.205 2.789-.615a4.052 4.052 0 0 0 1.785-1.764c.423-.766.635-1.709.635-2.83v-16.509l.513-5.065Zm-14.991 11.361v-.431c0-1.695.205-3.233.615-4.614.41-1.395.998-2.591 1.764-3.589a8.171 8.171 0 0 1 2.809-2.317c1.108-.547 2.352-.821 3.733-.821 1.463 0 2.693.267 3.691.8a6.754 6.754 0 0 1 2.502 2.277c.67.984 1.19 2.153 1.559 3.506.382 1.34.676 2.817.882 4.43v1.169c-.192 1.572-.5 3.015-.923 4.327-.41 1.313-.957 2.461-1.641 3.445a7.166 7.166 0 0 1-2.543 2.256c-1.012.534-2.201.8-3.568.8s-2.598-.28-3.692-.841a8.282 8.282 0 0 1-2.809-2.358c-.766-1.012-1.354-2.201-1.764-3.568-.41-1.368-.615-2.858-.615-4.471Zm5.414-.431v.431c0 .957.096 1.852.287 2.686.191.834.485 1.573.882 2.215a4.41 4.41 0 0 0 1.497 1.477c.601.355 1.319.533 2.153.533 1.121 0 2.037-.232 2.748-.697a4.488 4.488 0 0 0 1.641-1.948c.383-.834.629-1.771.738-2.81v-3.22a9.738 9.738 0 0 0-.451-2.276c-.219-.697-.526-1.299-.923-1.805a4.084 4.084 0 0 0-1.517-1.189c-.616-.287-1.347-.431-2.195-.431-.82 0-1.538.185-2.153.554a4.297 4.297 0 0 0-1.518 1.497c-.396.642-.697 1.388-.902 2.235a12.494 12.494 0 0 0-.287 2.748ZM493.057 199.283V189.05c0-.752-.129-1.402-.389-1.948a2.816 2.816 0 0 0-1.19-1.272c-.533-.301-1.21-.451-2.03-.451-.725 0-1.36.123-1.907.369-.533.246-.944.595-1.231 1.046-.287.437-.43.943-.43 1.518h-5.435c0-.916.219-1.785.656-2.605.438-.834 1.06-1.572 1.867-2.215.82-.656 1.797-1.169 2.932-1.538 1.149-.369 2.434-.554 3.856-.554 1.681 0 3.178.288 4.491.862 1.326.56 2.365 1.408 3.117 2.543.766 1.134 1.149 2.563 1.149 4.286v9.68c0 1.107.068 2.057.205 2.85.15.779.369 1.456.656 2.03V204h-5.517c-.26-.561-.458-1.271-.594-2.133a16.686 16.686 0 0 1-.206-2.584Zm.759-8.798.041 3.22h-3.425c-.847 0-1.592.089-2.235.267-.642.164-1.169.41-1.579.738a2.99 2.99 0 0 0-.923 1.148c-.205.438-.307.937-.307 1.497 0 .547.123 1.04.369 1.477.259.438.629.786 1.107 1.046.492.246 1.066.369 1.723.369.957 0 1.791-.191 2.502-.574.711-.397 1.264-.875 1.661-1.436.396-.56.608-1.093.636-1.599l1.558 2.338a9.15 9.15 0 0 1-.861 1.784 8.009 8.009 0 0 1-1.477 1.763c-.601.547-1.326.998-2.174 1.354-.847.355-1.832.533-2.953.533-1.435 0-2.72-.287-3.855-.861-1.135-.574-2.03-1.361-2.687-2.359-.656-.998-.984-2.132-.984-3.404 0-1.176.219-2.215.656-3.117.438-.902 1.087-1.661 1.948-2.276.862-.629 1.928-1.101 3.2-1.415 1.285-.329 2.755-.493 4.409-.493h3.65ZM507.967 186.343V204h-5.414v-22.189h5.127l.287 4.532Zm6.747-4.676-.082 5.045a9.402 9.402 0 0 0-1.025-.123 14.387 14.387 0 0 0-1.046-.041c-.834 0-1.565.116-2.194.348a4.11 4.11 0 0 0-1.579.964c-.41.424-.725.944-.944 1.559-.218.602-.341 1.285-.369 2.051l-1.169-.144c0-1.408.144-2.714.431-3.917.287-1.203.704-2.256 1.251-3.158.547-.902 1.23-1.6 2.051-2.092.834-.506 1.791-.759 2.871-.759a6.2 6.2 0 0 1 .964.082c.355.041.635.103.84.185Z"></path>
  <path fill="#7C7C7C" d="m145.935 259.409 4.034-11.206h1.177L146.383 261h-.87l.422-1.591Zm-4.166-11.206 4.016 11.206.44 1.591h-.879l-4.755-12.797h1.178ZM153.968 251.49V261h-1.046v-9.51h1.046Zm-1.231-2.751c0-.199.062-.366.185-.501a.682.682 0 0 1 .527-.211c.223 0 .399.071.528.211a.684.684 0 0 1 .202.501.7.7 0 0 1-.202.501c-.129.135-.305.202-.528.202-.222 0-.398-.067-.527-.202a.734.734 0 0 1-.185-.501ZM162.537 258.574c0-.258-.064-.512-.193-.764s-.378-.484-.747-.695c-.364-.211-.9-.389-1.609-.536a12.43 12.43 0 0 1-1.415-.395 4.103 4.103 0 0 1-1.037-.528 2.074 2.074 0 0 1-.641-.738c-.147-.287-.22-.627-.22-1.02 0-.351.076-.682.228-.993.159-.316.381-.592.668-.826a3.23 3.23 0 0 1 1.055-.562 4.513 4.513 0 0 1 1.397-.203c.733 0 1.36.126 1.881.378.528.246.929.583 1.204 1.011.282.428.422.911.422 1.45h-1.046c0-.328-.096-.638-.29-.931-.187-.293-.465-.534-.835-.721-.363-.188-.808-.281-1.336-.281-.544 0-.987.082-1.327.246-.34.164-.589.372-.747.624a1.495 1.495 0 0 0-.228.782c0 .211.032.404.096.58.071.17.194.328.37.475.181.146.439.284.773.413s.768.255 1.301.378c.767.17 1.394.378 1.881.624.492.24.855.539 1.089.896.235.352.352.78.352 1.283 0 .393-.082.753-.246 1.082-.164.322-.401.6-.712.835a3.368 3.368 0 0 1-1.107.544 4.992 4.992 0 0 1-1.442.194c-.803 0-1.482-.132-2.039-.396-.551-.269-.97-.621-1.257-1.054a2.555 2.555 0 0 1-.422-1.398h1.046c.035.492.191.882.466 1.169.276.281.612.481 1.011.598.404.117.803.176 1.195.176.539 0 .99-.08 1.354-.238.363-.158.638-.366.826-.624.187-.258.281-.536.281-.835ZM167.134 251.49V261h-1.046v-9.51h1.046Zm-1.231-2.751c0-.199.062-.366.185-.501a.682.682 0 0 1 .527-.211c.223 0 .399.071.528.211a.684.684 0 0 1 .202.501.7.7 0 0 1-.202.501c-.129.135-.305.202-.528.202-.222 0-.398-.067-.527-.202a.734.734 0 0 1-.185-.501ZM173.603 251.49v.862h-4.764v-.862h4.764Zm-3.015-2.443h1.046v9.641c0 .44.058.771.176.994.117.222.269.372.457.448.187.076.389.114.606.114.158 0 .311-.009.457-.026.147-.024.278-.047.396-.071l.044.888a2.763 2.763 0 0 1-.501.097 4.411 4.411 0 0 1-.616.044 2.48 2.48 0 0 1-1.072-.22c-.31-.152-.554-.41-.729-.773-.176-.37-.264-.871-.264-1.503v-9.633ZM181.592 259.295v-4.904c0-.452-.094-.841-.281-1.169a1.855 1.855 0 0 0-.827-.756c-.363-.176-.811-.264-1.344-.264a3.15 3.15 0 0 0-1.319.264c-.381.17-.682.401-.905.694a1.551 1.551 0 0 0-.325.958l-1.055-.009c0-.357.088-.703.264-1.037.176-.334.425-.633.747-.896a3.663 3.663 0 0 1 1.151-.624 4.47 4.47 0 0 1 1.486-.238c.679 0 1.277.115 1.793.343.521.229.928.572 1.221 1.029.293.457.44 1.031.44 1.722v4.597c0 .328.023.668.07 1.019.053.352.126.642.22.871V261h-1.116a4.244 4.244 0 0 1-.167-.791 8.237 8.237 0 0 1-.053-.914Zm.246-3.832.017.808h-2.065c-.539 0-1.022.05-1.45.15a3.3 3.3 0 0 0-1.072.422 2.018 2.018 0 0 0-.677.659 1.69 1.69 0 0 0-.229.879c0 .34.085.65.255.931.176.282.422.507.738.677.323.164.704.246 1.143.246.586 0 1.102-.108 1.547-.325a3.283 3.283 0 0 0 1.116-.852c.293-.352.489-.736.589-1.152l.457.607a3.053 3.053 0 0 1-.422.905 3.93 3.93 0 0 1-.782.861 4.14 4.14 0 0 1-1.143.651 4.146 4.146 0 0 1-1.476.246c-.621 0-1.163-.117-1.626-.352a2.69 2.69 0 0 1-1.072-.958 2.598 2.598 0 0 1-.378-1.388c0-.469.099-.888.298-1.257.2-.375.487-.692.862-.95a4.212 4.212 0 0 1 1.371-.597 7.156 7.156 0 0 1 1.81-.211h2.189ZM193.448 251.49v.862h-4.763v-.862h4.763Zm-3.014-2.443h1.045v9.641c0 .44.059.771.176.994.117.222.27.372.457.448.188.076.39.114.607.114.158 0 .31-.009.457-.026.146-.024.278-.047.395-.071l.044.888a2.763 2.763 0 0 1-.501.097c-.205.029-.41.044-.615.044-.404 0-.762-.073-1.072-.22-.311-.152-.554-.41-.73-.773-.176-.37-.263-.871-.263-1.503v-9.633ZM201.745 258.803v-7.313h1.055V261h-1.011l-.044-2.197Zm.193-1.758.545-.018a6.12 6.12 0 0 1-.211 1.653c-.14.504-.36.943-.659 1.318a2.945 2.945 0 0 1-1.16.87c-.474.205-1.046.308-1.714.308-.463 0-.887-.065-1.274-.194a2.496 2.496 0 0 1-.985-.632c-.275-.288-.489-.66-.641-1.117-.147-.457-.22-1.01-.22-1.661v-6.082h1.046v6.1c0 .51.056.934.167 1.274.117.34.275.613.475.818.205.205.439.351.703.439.263.088.548.132.852.132.774 0 1.383-.149 1.828-.448.452-.299.771-.692.958-1.178.194-.492.29-1.02.29-1.582ZM211.747 261h-1.046v-10.688c0-.65.111-1.198.334-1.643.229-.445.551-.782.967-1.011.422-.228.923-.343 1.503-.343.182 0 .369.012.562.036.194.017.381.055.563.114l-.079.888a2.351 2.351 0 0 0-.448-.08 4.576 4.576 0 0 0-.519-.026c-.381 0-.709.082-.984.246-.276.158-.487.39-.633.695-.147.304-.22.679-.22 1.124V261Zm2.268-9.51v.862h-4.887v-.862h4.887ZM221.995 258.803v-7.313h1.055V261h-1.011l-.044-2.197Zm.193-1.758.545-.018a6.12 6.12 0 0 1-.211 1.653c-.14.504-.36.943-.659 1.318a2.945 2.945 0 0 1-1.16.87c-.474.205-1.046.308-1.714.308-.463 0-.887-.065-1.274-.194a2.496 2.496 0 0 1-.985-.632c-.275-.288-.489-.66-.641-1.117-.147-.457-.22-1.01-.22-1.661v-6.082h1.046v6.1c0 .51.056.934.167 1.274.117.34.275.613.475.818.205.205.439.351.703.439.263.088.548.132.852.132.774 0 1.383-.149 1.828-.448.452-.299.771-.692.958-1.178.194-.492.29-1.02.29-1.582ZM229.396 251.49v.862h-4.764v-.862h4.764Zm-3.015-2.443h1.046v9.641c0 .44.058.771.176.994.117.222.269.372.457.448.187.076.389.114.606.114.158 0 .311-.009.457-.026.147-.024.278-.047.396-.071l.043.888a2.733 2.733 0 0 1-.5.097 4.411 4.411 0 0 1-.616.044 2.48 2.48 0 0 1-1.072-.22c-.311-.152-.554-.41-.729-.773-.176-.37-.264-.871-.264-1.503v-9.633ZM237.692 258.803v-7.313h1.055V261h-1.011l-.044-2.197Zm.194-1.758.545-.018a6.16 6.16 0 0 1-.211 1.653 3.689 3.689 0 0 1-.659 1.318 2.948 2.948 0 0 1-1.161.87c-.474.205-1.046.308-1.713.308-.463 0-.888-.065-1.275-.194a2.486 2.486 0 0 1-.984-.632c-.276-.288-.49-.66-.642-1.117-.146-.457-.22-1.01-.22-1.661v-6.082h1.046v6.1c0 .51.056.934.167 1.274.117.34.276.613.475.818.205.205.439.351.703.439.264.088.548.132.853.132.773 0 1.382-.149 1.828-.448.451-.299.77-.692.958-1.178.193-.492.29-1.02.29-1.582ZM242.544 253.063V261h-1.046v-9.51h1.02l.026 1.573Zm3.366-1.643-.026.967a6.45 6.45 0 0 0-.343-.044 3.36 3.36 0 0 0-.36-.018c-.457 0-.859.085-1.204.255a2.43 2.43 0 0 0-.862.694 3.114 3.114 0 0 0-.536 1.038 4.858 4.858 0 0 0-.211 1.265l-.387.15c0-.622.065-1.199.194-1.732a4.36 4.36 0 0 1 .589-1.397 2.862 2.862 0 0 1 1.01-.941c.411-.228.891-.343 1.442-.343.135 0 .266.012.395.036.135.017.235.041.299.07ZM246.807 256.395v-.291c0-.691.099-1.33.298-1.916.2-.585.484-1.092.853-1.52a3.874 3.874 0 0 1 1.345-.993 4.11 4.11 0 0 1 1.74-.361c.645 0 1.228.121 1.749.361.521.234.97.565 1.345.993.375.428.662.935.861 1.52.199.586.299 1.225.299 1.916v.291c0 .691-.1 1.33-.299 1.916a4.45 4.45 0 0 1-.861 1.511 3.893 3.893 0 0 1-1.336 1.002 4.19 4.19 0 0 1-1.74.352c-.645 0-1.228-.117-1.749-.352a3.975 3.975 0 0 1-1.345-1.002 4.469 4.469 0 0 1-.862-1.511 5.925 5.925 0 0 1-.298-1.916Zm1.046-.291v.291c0 .521.07 1.016.21 1.485.141.463.346.876.616 1.239.269.358.603.639 1.002.844.398.205.858.308 1.38.308.515 0 .969-.103 1.362-.308a2.905 2.905 0 0 0 1.002-.844c.269-.363.471-.776.606-1.239a5.13 5.13 0 0 0 .211-1.485v-.291c0-.515-.07-1.004-.211-1.467a3.8 3.8 0 0 0-.615-1.24 2.965 2.965 0 0 0-1.002-.861c-.398-.211-.855-.316-1.371-.316s-.973.105-1.371.316a3.063 3.063 0 0 0-1.002.861 4.01 4.01 0 0 0-.615 1.24 5.215 5.215 0 0 0-.202 1.467ZM262.917 247.5V261h-1.046v-13.5h1.046Zm-.237 8.156-.466-.263c.035-.563.149-1.09.343-1.582.193-.493.454-.926.782-1.301a3.631 3.631 0 0 1 1.169-.879 3.482 3.482 0 0 1 1.494-.317c.475 0 .899.065 1.274.194s.695.334.958.615c.264.281.463.642.598 1.081.141.44.211.976.211 1.608V261h-1.055v-6.196c0-.657-.091-1.169-.272-1.538-.182-.375-.44-.642-.774-.8-.334-.158-.729-.237-1.186-.237-.504 0-.946.111-1.327.333a3.076 3.076 0 0 0-.95.853 4.179 4.179 0 0 0-.58 1.116 3.862 3.862 0 0 0-.219 1.125ZM271.17 256.395v-.291c0-.691.1-1.33.299-1.916a4.537 4.537 0 0 1 .852-1.52 3.883 3.883 0 0 1 1.345-.993 4.117 4.117 0 0 1 1.74-.361c.645 0 1.228.121 1.749.361.522.234.97.565 1.345.993.375.428.662.935.861 1.52.2.586.299 1.225.299 1.916v.291c0 .691-.099 1.33-.299 1.916a4.45 4.45 0 0 1-.861 1.511 3.884 3.884 0 0 1-1.336 1.002 4.188 4.188 0 0 1-1.74.352c-.645 0-1.228-.117-1.749-.352a3.975 3.975 0 0 1-1.345-1.002 4.45 4.45 0 0 1-.861-1.511 5.925 5.925 0 0 1-.299-1.916Zm1.046-.291v.291c0 .521.07 1.016.211 1.485.14.463.345.876.615 1.239.27.358.604.639 1.002.844.398.205.858.308 1.38.308.515 0 .97-.103 1.362-.308a2.887 2.887 0 0 0 1.002-.844 3.87 3.87 0 0 0 .607-1.239c.14-.469.21-.964.21-1.485v-.291c0-.515-.07-1.004-.21-1.467a3.783 3.783 0 0 0-.616-1.24 2.946 2.946 0 0 0-1.002-.861c-.398-.211-.855-.316-1.371-.316-.515 0-.972.105-1.371.316a3.083 3.083 0 0 0-1.002.861 4.054 4.054 0 0 0-.615 1.24 5.215 5.215 0 0 0-.202 1.467ZM288.098 251.49h.975v9.343c0 .826-.158 1.535-.474 2.127a3.232 3.232 0 0 1-1.328 1.362c-.568.317-1.239.475-2.012.475-.393 0-.797-.062-1.213-.185-.41-.117-.8-.299-1.169-.545a3.576 3.576 0 0 1-.932-.896l.589-.642c.387.469.8.812 1.239 1.029.44.222.915.334 1.424.334.604 0 1.114-.121 1.53-.361.421-.24.741-.586.958-1.037.222-.451.334-.993.334-1.626v-7.286l.079-2.092Zm-6.68 4.852v-.185c0-.738.082-1.403.246-1.995.17-.598.413-1.107.73-1.529a3.16 3.16 0 0 1 1.151-.976 3.42 3.42 0 0 1 1.547-.343c.551 0 1.04.091 1.468.273.427.182.796.442 1.107.782.311.34.56.744.747 1.213.193.469.334.99.422 1.564v2.347a5.796 5.796 0 0 1-.387 1.486 3.93 3.93 0 0 1-.747 1.168c-.31.329-.685.583-1.125.765-.433.176-.934.264-1.503.264a3.26 3.26 0 0 1-1.529-.352 3.32 3.32 0 0 1-1.151-.993 4.85 4.85 0 0 1-.73-1.538 7.292 7.292 0 0 1-.246-1.951Zm1.055-.185v.185c0 .556.055 1.072.167 1.547.111.474.281.887.509 1.239a2.5 2.5 0 0 0 .871.826c.351.199.764.299 1.239.299.603 0 1.11-.114 1.52-.343.41-.234.736-.542.976-.923.24-.386.416-.808.527-1.265v-2.734a5.156 5.156 0 0 0-.299-.949 3.1 3.1 0 0 0-.545-.888 2.447 2.447 0 0 0-.878-.659c-.352-.17-.78-.255-1.284-.255-.48 0-.899.1-1.256.299a2.473 2.473 0 0 0-.871.835 3.892 3.892 0 0 0-.509 1.239 6.738 6.738 0 0 0-.167 1.547ZM297.607 259.295v-4.904c0-.452-.093-.841-.281-1.169a1.852 1.852 0 0 0-.826-.756c-.363-.176-.812-.264-1.345-.264a3.15 3.15 0 0 0-1.318.264c-.381.17-.683.401-.905.694a1.552 1.552 0 0 0-.326.958l-1.054-.009c0-.357.088-.703.263-1.037.176-.334.425-.633.747-.896a3.68 3.68 0 0 1 1.152-.624 4.464 4.464 0 0 1 1.485-.238c.68 0 1.278.115 1.793.343.522.229.929.572 1.222 1.029.293.457.439 1.031.439 1.722v4.597c0 .328.024.668.071 1.019.052.352.126.642.219.871V261h-1.116a4.326 4.326 0 0 1-.167-.791 8.487 8.487 0 0 1-.053-.914Zm.247-3.832.017.808h-2.065a6.4 6.4 0 0 0-1.451.15 3.308 3.308 0 0 0-1.072.422 2.027 2.027 0 0 0-.677.659 1.699 1.699 0 0 0-.228.879c0 .34.085.65.255.931.176.282.422.507.738.677.322.164.703.246 1.143.246.586 0 1.101-.108 1.547-.325a3.283 3.283 0 0 0 1.116-.852c.293-.352.489-.736.589-1.152l.457.607a3.078 3.078 0 0 1-.422.905 3.93 3.93 0 0 1-.782.861 4.169 4.169 0 0 1-1.143.651 4.155 4.155 0 0 1-1.477.246c-.621 0-1.163-.117-1.626-.352a2.697 2.697 0 0 1-1.072-.958 2.598 2.598 0 0 1-.378-1.388c0-.469.1-.888.299-1.257a2.66 2.66 0 0 1 .861-.95 4.212 4.212 0 0 1 1.371-.597 7.17 7.17 0 0 1 1.811-.211h2.189ZM302.521 253.063V261h-1.046v-9.51h1.019l.027 1.573Zm3.366-1.643-.027.967a6.416 6.416 0 0 0-.342-.044 3.392 3.392 0 0 0-.361-.018c-.457 0-.858.085-1.204.255-.34.164-.627.396-.861.694a3.096 3.096 0 0 0-.536 1.038 4.817 4.817 0 0 0-.211 1.265l-.387.15c0-.622.064-1.199.193-1.732.129-.533.326-.999.589-1.397.27-.405.607-.718 1.011-.941.41-.228.891-.343 1.441-.343.135 0 .267.012.396.036.135.017.234.041.299.07ZM314.737 259.989l3.05-8.499h1.081l-3.559 9.51h-.765l.193-1.011Zm-2.759-8.499 3.084 8.526.167.984h-.773l-3.568-9.51h1.09ZM321.769 251.49V261h-1.046v-9.51h1.046Zm-1.231-2.751c0-.199.062-.366.185-.501.129-.14.304-.211.527-.211.223 0 .398.071.527.211a.68.68 0 0 1 .202.501.696.696 0 0 1-.202.501c-.129.135-.304.202-.527.202-.223 0-.398-.067-.527-.202a.734.734 0 0 1-.185-.501ZM325.688 253.063V261h-1.045v-9.51h1.019l.026 1.573Zm3.367-1.643-.027.967a6.416 6.416 0 0 0-.342-.044 3.392 3.392 0 0 0-.361-.018c-.457 0-.858.085-1.204.255-.34.164-.627.396-.861.694a3.096 3.096 0 0 0-.536 1.038 4.817 4.817 0 0 0-.211 1.265l-.387.15c0-.622.064-1.199.193-1.732.129-.533.326-.999.589-1.397.27-.405.607-.718 1.011-.941.41-.228.891-.343 1.441-.343.135 0 .267.012.396.036.135.017.234.041.299.07ZM334.741 251.49v.862h-4.763v-.862h4.763Zm-3.014-2.443h1.045v9.641c0 .44.059.771.176.994.117.222.27.372.457.448.188.076.39.114.607.114.158 0 .31-.009.457-.026.146-.024.278-.047.395-.071l.044.888a2.763 2.763 0 0 1-.501.097c-.205.029-.41.044-.615.044-.404 0-.762-.073-1.072-.22-.311-.152-.554-.41-.73-.773-.176-.37-.263-.871-.263-1.503v-9.633ZM343.038 258.803v-7.313h1.055V261h-1.011l-.044-2.197Zm.193-1.758.545-.018a6.12 6.12 0 0 1-.211 1.653c-.14.504-.36.943-.659 1.318a2.945 2.945 0 0 1-1.16.87c-.475.205-1.046.308-1.714.308-.463 0-.887-.065-1.274-.194a2.496 2.496 0 0 1-.985-.632c-.275-.288-.489-.66-.641-1.117-.147-.457-.22-1.01-.22-1.661v-6.082h1.046v6.1c0 .51.056.934.167 1.274.117.34.275.613.475.818.205.205.439.351.703.439.263.088.548.132.852.132.774 0 1.383-.149 1.828-.448.452-.299.771-.692.958-1.178.194-.492.29-1.02.29-1.582ZM352.627 259.295v-4.904c0-.452-.094-.841-.281-1.169a1.858 1.858 0 0 0-.826-.756c-.364-.176-.812-.264-1.345-.264-.492 0-.932.088-1.319.264-.38.17-.682.401-.905.694a1.551 1.551 0 0 0-.325.958l-1.055-.009c0-.357.088-.703.264-1.037.176-.334.425-.633.747-.896a3.663 3.663 0 0 1 1.151-.624 4.475 4.475 0 0 1 1.486-.238c.679 0 1.277.115 1.793.343.521.229.928.572 1.221 1.029.293.457.44 1.031.44 1.722v4.597c0 .328.023.668.07 1.019.053.352.126.642.22.871V261h-1.116a4.244 4.244 0 0 1-.167-.791 8.487 8.487 0 0 1-.053-.914Zm.246-3.832.018.808h-2.066c-.539 0-1.022.05-1.45.15a3.3 3.3 0 0 0-1.072.422 2.018 2.018 0 0 0-.677.659 1.7 1.7 0 0 0-.229.879c0 .34.085.65.255.931.176.282.422.507.739.677.322.164.703.246 1.142.246.586 0 1.102-.108 1.547-.325a3.283 3.283 0 0 0 1.116-.852c.293-.352.49-.736.589-1.152l.457.607a3.053 3.053 0 0 1-.422.905 3.93 3.93 0 0 1-1.924 1.512 4.155 4.155 0 0 1-1.477.246c-.621 0-1.163-.117-1.626-.352a2.697 2.697 0 0 1-1.072-.958 2.598 2.598 0 0 1-.378-1.388c0-.469.099-.888.299-1.257a2.66 2.66 0 0 1 .861-.95 4.212 4.212 0 0 1 1.371-.597 7.164 7.164 0 0 1 1.811-.211h2.188ZM357.663 247.5V261h-1.046v-13.5h1.046ZM361.53 253.459V261h-1.054v-9.51h1.01l.044 1.969Zm-.193 2.197-.51-.263c.035-.563.141-1.09.317-1.582.181-.493.433-.926.755-1.301a3.427 3.427 0 0 1 1.161-.879c.451-.211.963-.317 1.538-.317.463 0 .881.065 1.256.194.381.123.704.319.967.589.27.263.478.609.624 1.037.147.428.22.94.22 1.538V261h-1.046v-6.293c0-.633-.099-1.128-.299-1.485a1.664 1.664 0 0 0-.817-.765 2.97 2.97 0 0 0-1.204-.228c-.539 0-.996.111-1.371.333a2.75 2.75 0 0 0-.906.853 3.941 3.941 0 0 0-.509 1.116c-.112.393-.17.768-.176 1.125Zm6.319-.826-.703.018a3.778 3.778 0 0 1 1.081-2.452 3.544 3.544 0 0 1 1.152-.792c.451-.193.958-.29 1.52-.29.492 0 .932.068 1.318.203.387.129.712.337.976.624.27.281.475.641.615 1.081.141.439.211.966.211 1.582V261h-1.055v-6.205c0-.674-.099-1.195-.298-1.565-.194-.375-.463-.635-.809-.782-.346-.146-.75-.219-1.213-.219-.457.005-.858.09-1.204.254a2.6 2.6 0 0 0-.87.633 2.934 2.934 0 0 0-.527.835 2.693 2.693 0 0 0-.194.879ZM380.172 261.176a4.215 4.215 0 0 1-1.714-.343 4.105 4.105 0 0 1-1.354-.967 4.47 4.47 0 0 1-.887-1.476 5.564 5.564 0 0 1-.308-1.881v-.378c0-.733.109-1.395.325-1.986a4.606 4.606 0 0 1 .897-1.521 3.97 3.97 0 0 1 1.301-.967 3.636 3.636 0 0 1 1.547-.343c.603 0 1.139.109 1.608.326.469.211.861.512 1.178.905.322.387.565.847.729 1.38.164.527.246 1.11.246 1.749v.641h-7.198v-.896h6.152v-.123a3.849 3.849 0 0 0-.325-1.494 2.7 2.7 0 0 0-.896-1.143c-.399-.293-.897-.439-1.494-.439-.446 0-.856.093-1.231.281a2.794 2.794 0 0 0-.958.809 3.864 3.864 0 0 0-.615 1.239 5.541 5.541 0 0 0-.211 1.582v.378c0 .527.076 1.019.228 1.476.159.452.381.85.668 1.196.293.345.639.615 1.037.808.399.194.838.29 1.319.29.562 0 1.06-.102 1.494-.307.434-.211.823-.542 1.169-.993l.659.509a4.017 4.017 0 0 1-.773.844 3.49 3.49 0 0 1-1.099.615c-.428.153-.926.229-1.494.229ZM386.86 253.521V261h-1.046v-9.51h1.002l.044 2.031Zm-.237 2.135-.466-.263c.035-.563.15-1.09.343-1.582.193-.493.454-.926.782-1.301a3.642 3.642 0 0 1 1.169-.879 3.482 3.482 0 0 1 1.494-.317c.475 0 .9.065 1.275.194.375.129.694.334.958.615.263.281.463.642.597 1.081.141.44.211.976.211 1.608V261h-1.054v-6.196c0-.657-.091-1.169-.273-1.538-.181-.375-.439-.642-.773-.8-.334-.158-.73-.237-1.187-.237-.504 0-.946.111-1.327.333a3.072 3.072 0 0 0-.949.853 4.15 4.15 0 0 0-.58 1.116 3.864 3.864 0 0 0-.22 1.125ZM399.306 251.49v.862h-4.764v-.862h4.764Zm-3.015-2.443h1.046v9.641c0 .44.059.771.176.994.117.222.269.372.457.448.187.076.389.114.606.114.158 0 .311-.009.457-.026.147-.024.279-.047.396-.071l.044.888a2.763 2.763 0 0 1-.501.097 4.39 4.39 0 0 1-.616.044 2.48 2.48 0 0 1-1.072-.22c-.31-.152-.554-.41-.729-.773-.176-.37-.264-.871-.264-1.503v-9.633ZM405.186 261.176a4.211 4.211 0 0 1-1.714-.343 4.105 4.105 0 0 1-1.354-.967 4.455 4.455 0 0 1-.888-1.476 5.564 5.564 0 0 1-.307-1.881v-.378c0-.733.108-1.395.325-1.986a4.606 4.606 0 0 1 .897-1.521c.38-.422.814-.744 1.3-.967a3.643 3.643 0 0 1 1.547-.343c.604 0 1.14.109 1.609.326.468.211.861.512 1.177.905.323.387.566.847.73 1.38.164.527.246 1.11.246 1.749v.641h-7.198v-.896h6.152v-.123a3.867 3.867 0 0 0-.325-1.494 2.695 2.695 0 0 0-.897-1.143c-.398-.293-.896-.439-1.494-.439-.445 0-.855.093-1.23.281a2.785 2.785 0 0 0-.958.809 3.886 3.886 0 0 0-.616 1.239 5.578 5.578 0 0 0-.21 1.582v.378c0 .527.076 1.019.228 1.476.158.452.381.85.668 1.196.293.345.639.615 1.037.808.399.194.838.29 1.318.29.563 0 1.061-.102 1.495-.307.433-.211.823-.542 1.169-.993l.659.509a3.996 3.996 0 0 1-.774.844 3.485 3.485 0 0 1-1.098.615c-.428.153-.926.229-1.494.229ZM421.401 259.154V247.5h1.055V261h-.984l-.071-1.846Zm-6.6-2.812v-.185c0-.738.085-1.403.255-1.995.17-.598.413-1.107.729-1.529a3.237 3.237 0 0 1 1.16-.976 3.344 3.344 0 0 1 1.53-.343c.556 0 1.048.091 1.476.273.428.182.794.442 1.099.782.31.34.559.744.747 1.213.193.469.334.99.422 1.564v2.347a5.837 5.837 0 0 1-.387 1.486 3.93 3.93 0 0 1-.747 1.168 3.224 3.224 0 0 1-1.125.765c-.434.176-.935.264-1.503.264a3.24 3.24 0 0 1-1.52-.352 3.323 3.323 0 0 1-1.152-.993 4.87 4.87 0 0 1-.729-1.538 7.05 7.05 0 0 1-.255-1.951Zm1.054-.185v.185c0 .556.056 1.072.167 1.547.112.474.282.887.51 1.239.229.351.519.627.87.826.352.199.768.299 1.248.299.604 0 1.111-.114 1.521-.343.41-.234.738-.542.984-.923.246-.386.425-.808.536-1.265v-2.734a5.71 5.71 0 0 0-.307-.949 3.295 3.295 0 0 0-.554-.888 2.442 2.442 0 0 0-.879-.659c-.351-.17-.779-.255-1.283-.255-.486 0-.905.1-1.257.299a2.556 2.556 0 0 0-.879.835 3.916 3.916 0 0 0-.51 1.239 6.794 6.794 0 0 0-.167 1.547ZM428.898 261.176a4.21 4.21 0 0 1-1.713-.343 4.105 4.105 0 0 1-1.354-.967 4.455 4.455 0 0 1-.888-1.476 5.564 5.564 0 0 1-.307-1.881v-.378c0-.733.108-1.395.325-1.986a4.62 4.62 0 0 1 .896-1.521 3.98 3.98 0 0 1 1.301-.967 3.64 3.64 0 0 1 1.547-.343c.604 0 1.14.109 1.608.326.469.211.862.512 1.178.905.322.387.566.847.73 1.38.164.527.246 1.11.246 1.749v.641h-7.198v-.896h6.152v-.123a3.867 3.867 0 0 0-.325-1.494c-.2-.469-.498-.85-.897-1.143-.398-.293-.896-.439-1.494-.439-.445 0-.855.093-1.23.281-.37.187-.689.457-.958.809a3.886 3.886 0 0 0-.616 1.239 5.577 5.577 0 0 0-.211 1.582v.378c0 .527.077 1.019.229 1.476.158.452.381.85.668 1.196.293.345.639.615 1.037.808.398.194.838.29 1.318.29.563 0 1.061-.102 1.495-.307.433-.211.823-.542 1.168-.993l.66.509a3.996 3.996 0 0 1-.774.844 3.485 3.485 0 0 1-1.098.615c-.428.153-.926.229-1.495.229ZM440.236 258.574c0-.258-.064-.512-.193-.764s-.378-.484-.747-.695c-.363-.211-.9-.389-1.608-.536-.528-.117-1-.249-1.416-.395a4.12 4.12 0 0 1-1.037-.528 2.074 2.074 0 0 1-.641-.738c-.147-.287-.22-.627-.22-1.02 0-.351.076-.682.229-.993.158-.316.38-.592.668-.826.292-.24.644-.428 1.054-.562a4.515 4.515 0 0 1 1.398-.203c.732 0 1.359.126 1.881.378.527.246.928.583 1.204 1.011.281.428.421.911.421 1.45h-1.045c0-.328-.097-.638-.29-.931-.188-.293-.466-.534-.835-.721-.364-.188-.809-.281-1.336-.281-.545 0-.988.082-1.327.246-.34.164-.589.372-.748.624a1.495 1.495 0 0 0-.228.782c0 .211.032.404.097.58.07.17.193.328.369.475.181.146.439.284.773.413s.768.255 1.301.378c.768.17 1.394.378 1.881.624.492.24.855.539 1.09.896.234.352.351.78.351 1.283 0 .393-.082.753-.246 1.082-.164.322-.401.6-.712.835a3.358 3.358 0 0 1-1.107.544 4.987 4.987 0 0 1-1.442.194c-.802 0-1.482-.132-2.039-.396-.55-.269-.969-.621-1.257-1.054a2.554 2.554 0 0 1-.421-1.398h1.046c.035.492.19.882.465 1.169a2.3 2.3 0 0 0 1.011.598c.404.117.803.176 1.195.176.539 0 .991-.08 1.354-.238.363-.158.639-.366.826-.624.188-.258.281-.536.281-.835ZM449.843 259.154V247.5h1.054V261h-.984l-.07-1.846Zm-6.601-2.812v-.185c0-.738.085-1.403.255-1.995.17-.598.413-1.107.73-1.529a3.237 3.237 0 0 1 1.16-.976 3.343 3.343 0 0 1 1.529-.343c.557 0 1.049.091 1.477.273.427.182.794.442 1.098.782.311.34.56.744.747 1.213.194.469.334.99.422 1.564v2.347a5.796 5.796 0 0 1-.387 1.486 3.93 3.93 0 0 1-.747 1.168c-.31.329-.685.583-1.125.765-.433.176-.934.264-1.503.264a3.24 3.24 0 0 1-1.52-.352 3.32 3.32 0 0 1-1.151-.993 4.85 4.85 0 0 1-.73-1.538 7.05 7.05 0 0 1-.255-1.951Zm1.055-.185v.185c0 .556.056 1.072.167 1.547.111.474.281.887.51 1.239.228.351.518.627.87.826.351.199.767.299 1.248.299.603 0 1.11-.114 1.52-.343a2.81 2.81 0 0 0 .985-.923c.246-.386.424-.808.536-1.265v-2.734a5.812 5.812 0 0 0-.308-.949 3.27 3.27 0 0 0-.554-.888 2.447 2.447 0 0 0-.878-.659c-.352-.17-.78-.255-1.284-.255-.486 0-.905.1-1.256.299a2.538 2.538 0 0 0-.879.835 3.87 3.87 0 0 0-.51 1.239 6.794 6.794 0 0 0-.167 1.547ZM457.34 261.176a4.215 4.215 0 0 1-1.714-.343 4.105 4.105 0 0 1-1.354-.967 4.47 4.47 0 0 1-.887-1.476 5.564 5.564 0 0 1-.308-1.881v-.378c0-.733.109-1.395.325-1.986a4.606 4.606 0 0 1 .897-1.521 3.97 3.97 0 0 1 1.301-.967 3.635 3.635 0 0 1 1.546-.343c.604 0 1.14.109 1.609.326.469.211.861.512 1.178.905.322.387.565.847.729 1.38.164.527.246 1.11.246 1.749v.641h-7.198v-.896h6.152v-.123a3.849 3.849 0 0 0-.325-1.494 2.7 2.7 0 0 0-.896-1.143c-.399-.293-.897-.439-1.495-.439-.445 0-.855.093-1.23.281a2.794 2.794 0 0 0-.958.809 3.864 3.864 0 0 0-.615 1.239 5.541 5.541 0 0 0-.211 1.582v.378c0 .527.076 1.019.228 1.476.159.452.381.85.668 1.196.293.345.639.615 1.037.808.399.194.838.29 1.319.29.562 0 1.06-.102 1.494-.307.434-.211.823-.542 1.169-.993l.659.509a4.017 4.017 0 0 1-.773.844 3.49 3.49 0 0 1-1.099.615c-.428.153-.926.229-1.494.229ZM468.546 247.5V261H467.5v-13.5h1.046ZM477.203 259.295v-4.904c0-.452-.094-.841-.281-1.169a1.858 1.858 0 0 0-.826-.756c-.364-.176-.812-.264-1.345-.264-.492 0-.932.088-1.318.264-.381.17-.683.401-.906.694a1.558 1.558 0 0 0-.325.958l-1.055-.009c0-.357.088-.703.264-1.037.176-.334.425-.633.747-.896a3.658 3.658 0 0 1 1.152-.624 4.464 4.464 0 0 1 1.485-.238c.68 0 1.277.115 1.793.343.521.229.929.572 1.222 1.029.293.457.439 1.031.439 1.722v4.597c0 .328.023.668.07 1.019.053.352.126.642.22.871V261h-1.116a4.326 4.326 0 0 1-.167-.791 8.487 8.487 0 0 1-.053-.914Zm.246-3.832.018.808h-2.066c-.539 0-1.022.05-1.45.15a3.3 3.3 0 0 0-1.072.422 2.018 2.018 0 0 0-.677.659 1.699 1.699 0 0 0-.228.879c0 .34.085.65.255.931.175.282.421.507.738.677.322.164.703.246 1.142.246.586 0 1.102-.108 1.547-.325a3.283 3.283 0 0 0 1.116-.852c.293-.352.49-.736.589-1.152l.457.607a3.028 3.028 0 0 1-.422.905 3.904 3.904 0 0 1-.782.861 4.148 4.148 0 0 1-1.142.651 4.155 4.155 0 0 1-1.477.246c-.621 0-1.163-.117-1.626-.352a2.697 2.697 0 0 1-1.072-.958 2.598 2.598 0 0 1-.378-1.388c0-.469.1-.888.299-1.257a2.66 2.66 0 0 1 .861-.95 4.212 4.212 0 0 1 1.371-.597 7.164 7.164 0 0 1 1.811-.211h2.188ZM120.13 284.271c.445 0 .861-.083 1.248-.247.393-.17.715-.419.967-.747.258-.334.404-.741.439-1.221h1.002a2.964 2.964 0 0 1-.554 1.617 3.472 3.472 0 0 1-1.318 1.107 4.002 4.002 0 0 1-1.784.396c-.662 0-1.248-.12-1.758-.361a3.534 3.534 0 0 1-1.266-1.002 4.624 4.624 0 0 1-.773-1.511 6.628 6.628 0 0 1-.255-1.872v-.369c0-.668.085-1.29.255-1.864.176-.58.434-1.084.773-1.511.34-.434.762-.771 1.266-1.011.504-.24 1.087-.361 1.749-.361.68 0 1.289.138 1.828.414.545.275.979.665 1.301 1.168.328.504.507 1.102.536 1.793h-1.002c-.029-.509-.164-.949-.404-1.318a2.42 2.42 0 0 0-.949-.852 2.844 2.844 0 0 0-1.31-.299c-.539 0-.999.105-1.38.316a2.541 2.541 0 0 0-.931.853 3.848 3.848 0 0 0-.519 1.23 6.092 6.092 0 0 0-.167 1.442v.369c0 .509.053.996.158 1.459.112.457.284.864.519 1.221.24.358.551.642.931.853.387.205.853.308 1.398.308ZM125.324 280.395v-.291c0-.691.1-1.33.299-1.916a4.522 4.522 0 0 1 .853-1.52 3.88 3.88 0 0 1 1.344-.993 4.118 4.118 0 0 1 1.741-.361c.644 0 1.227.121 1.749.361a3.88 3.88 0 0 1 1.344.993c.375.428.662.935.862 1.52.199.586.298 1.225.298 1.916v.291c0 .691-.099 1.33-.298 1.916-.2.58-.487 1.084-.862 1.511a3.884 3.884 0 0 1-1.336 1.002 4.184 4.184 0 0 1-1.74.352 4.213 4.213 0 0 1-1.749-.352 3.985 3.985 0 0 1-1.345-1.002 4.45 4.45 0 0 1-.861-1.511 5.925 5.925 0 0 1-.299-1.916Zm1.046-.291v.291c0 .521.07 1.016.211 1.485.141.463.346.876.615 1.239.27.358.604.639 1.002.844.399.205.859.308 1.38.308.516 0 .97-.103 1.362-.308a2.887 2.887 0 0 0 1.002-.844 3.87 3.87 0 0 0 .607-1.239c.14-.469.211-.964.211-1.485v-.291c0-.515-.071-1.004-.211-1.467a3.8 3.8 0 0 0-.615-1.24 2.965 2.965 0 0 0-1.002-.861c-.399-.211-.856-.316-1.371-.316-.516 0-.973.105-1.372.316a3.07 3.07 0 0 0-1.001.861c-.27.364-.475.777-.616 1.24a5.252 5.252 0 0 0-.202 1.467ZM136.987 277.459V285h-1.054v-9.51h1.01l.044 1.969Zm-.193 2.197-.51-.263c.035-.563.141-1.09.317-1.582.181-.493.433-.926.755-1.301a3.427 3.427 0 0 1 1.161-.879c.451-.211.963-.317 1.538-.317.463 0 .882.065 1.257.194.38.123.703.319.966.589.27.263.478.609.624 1.037.147.428.22.94.22 1.538V285h-1.046v-6.293c0-.633-.099-1.128-.299-1.485a1.66 1.66 0 0 0-.817-.765 2.97 2.97 0 0 0-1.204-.228c-.539 0-.996.111-1.371.333a2.75 2.75 0 0 0-.906.853 3.941 3.941 0 0 0-.509 1.116c-.112.393-.17.768-.176 1.125Zm6.319-.826-.703.018a3.778 3.778 0 0 1 1.081-2.452 3.544 3.544 0 0 1 1.152-.792c.451-.193.958-.29 1.52-.29.492 0 .932.068 1.318.203.387.129.712.337.976.624.27.281.475.641.615 1.081.141.439.211.966.211 1.582V285h-1.054v-6.205c0-.674-.1-1.195-.299-1.565-.194-.375-.463-.635-.809-.782-.346-.146-.75-.219-1.213-.219-.457.005-.858.09-1.204.254a2.6 2.6 0 0 0-.87.633 2.934 2.934 0 0 0-.527.835 2.693 2.693 0 0 0-.194.879ZM151.375 280.395v-.291c0-.691.1-1.33.299-1.916a4.537 4.537 0 0 1 .852-1.52 3.883 3.883 0 0 1 1.345-.993 4.117 4.117 0 0 1 1.74-.361c.645 0 1.228.121 1.749.361.522.234.97.565 1.345.993.375.428.662.935.861 1.52.2.586.299 1.225.299 1.916v.291c0 .691-.099 1.33-.299 1.916a4.45 4.45 0 0 1-.861 1.511 3.884 3.884 0 0 1-1.336 1.002 4.184 4.184 0 0 1-1.74.352c-.645 0-1.228-.117-1.749-.352a3.975 3.975 0 0 1-1.345-1.002 4.45 4.45 0 0 1-.861-1.511 5.925 5.925 0 0 1-.299-1.916Zm1.046-.291v.291c0 .521.07 1.016.211 1.485.14.463.346.876.615 1.239.27.358.604.639 1.002.844.398.205.858.308 1.38.308.516 0 .97-.103 1.362-.308a2.887 2.887 0 0 0 1.002-.844 3.87 3.87 0 0 0 .607-1.239c.14-.469.211-.964.211-1.485v-.291c0-.515-.071-1.004-.211-1.467a3.783 3.783 0 0 0-.616-1.24 2.946 2.946 0 0 0-1.002-.861c-.398-.211-.855-.316-1.371-.316-.515 0-.972.105-1.371.316a3.083 3.083 0 0 0-1.002.861 4.054 4.054 0 0 0-.615 1.24 5.215 5.215 0 0 0-.202 1.467ZM168.224 283.154V271.5h1.054V285h-.984l-.07-1.846Zm-6.601-2.812v-.185c0-.738.085-1.403.255-1.995.17-.598.413-1.107.729-1.529a3.24 3.24 0 0 1 1.161-.976 3.343 3.343 0 0 1 1.529-.343c.557 0 1.049.091 1.476.273.428.182.794.442 1.099.782.311.34.56.744.747 1.213.193.469.334.99.422 1.564v2.347a5.796 5.796 0 0 1-.387 1.486 3.93 3.93 0 0 1-.747 1.168c-.31.329-.685.583-1.125.765-.433.176-.934.264-1.503.264a3.24 3.24 0 0 1-1.52-.352 3.332 3.332 0 0 1-1.152-.993 4.87 4.87 0 0 1-.729-1.538 7.05 7.05 0 0 1-.255-1.951Zm1.055-.185v.185c0 .556.055 1.072.167 1.547.111.474.281.887.509 1.239a2.5 2.5 0 0 0 .871.826c.351.199.767.299 1.248.299.603 0 1.11-.114 1.52-.343.41-.234.738-.542.985-.923.246-.386.424-.808.536-1.265v-2.734a5.812 5.812 0 0 0-.308-.949 3.27 3.27 0 0 0-.554-.888 2.442 2.442 0 0 0-.879-.659c-.351-.17-.779-.255-1.283-.255-.486 0-.905.1-1.257.299a2.556 2.556 0 0 0-.879.835 3.892 3.892 0 0 0-.509 1.239 6.738 6.738 0 0 0-.167 1.547ZM173.216 275.49V285h-1.046v-9.51h1.046Zm-1.231-2.751c0-.199.062-.366.185-.501a.682.682 0 0 1 .527-.211c.223 0 .399.071.528.211a.684.684 0 0 1 .202.501.7.7 0 0 1-.202.501c-.129.135-.305.202-.528.202-.222 0-.398-.067-.527-.202a.734.734 0 0 1-.185-.501ZM182.269 283.154V271.5h1.054V285h-.984l-.07-1.846Zm-6.601-2.812v-.185c0-.738.085-1.403.255-1.995.17-.598.413-1.107.729-1.529a3.246 3.246 0 0 1 1.16-.976 3.347 3.347 0 0 1 1.53-.343c.556 0 1.049.091 1.476.273.428.182.794.442 1.099.782.311.34.56.744.747 1.213.193.469.334.99.422 1.564v2.347a5.796 5.796 0 0 1-.387 1.486 3.93 3.93 0 0 1-.747 1.168c-.31.329-.685.583-1.125.765-.433.176-.934.264-1.503.264a3.24 3.24 0 0 1-1.52-.352 3.332 3.332 0 0 1-1.152-.993 4.87 4.87 0 0 1-.729-1.538 7.05 7.05 0 0 1-.255-1.951Zm1.055-.185v.185c0 .556.055 1.072.167 1.547.111.474.281.887.509 1.239a2.5 2.5 0 0 0 .871.826c.351.199.767.299 1.248.299.603 0 1.11-.114 1.52-.343.41-.234.738-.542.984-.923a4.17 4.17 0 0 0 .537-1.265v-2.734a5.812 5.812 0 0 0-.308-.949 3.27 3.27 0 0 0-.554-.888 2.442 2.442 0 0 0-.879-.659c-.351-.17-.779-.255-1.283-.255-.486 0-.905.1-1.257.299a2.556 2.556 0 0 0-.879.835 3.892 3.892 0 0 0-.509 1.239 6.738 6.738 0 0 0-.167 1.547ZM191.875 283.295v-4.904c0-.452-.094-.841-.281-1.169a1.858 1.858 0 0 0-.826-.756c-.364-.176-.812-.264-1.345-.264-.492 0-.932.088-1.319.264-.38.17-.682.401-.905.694a1.551 1.551 0 0 0-.325.958l-1.055-.009c0-.357.088-.703.264-1.037.176-.334.425-.633.747-.896a3.663 3.663 0 0 1 1.151-.624 4.475 4.475 0 0 1 1.486-.238c.679 0 1.277.115 1.793.343.521.229.928.572 1.221 1.029.293.457.44 1.031.44 1.722v4.597c0 .328.023.668.07 1.019.053.352.126.642.22.871V285h-1.116a4.244 4.244 0 0 1-.167-.791 8.487 8.487 0 0 1-.053-.914Zm.246-3.832.018.808h-2.066c-.539 0-1.022.05-1.45.15a3.3 3.3 0 0 0-1.072.422 2.018 2.018 0 0 0-.677.659 1.699 1.699 0 0 0-.228.879c0 .34.084.65.254.931.176.282.422.507.739.677.322.164.703.246 1.142.246.586 0 1.102-.108 1.547-.325a3.283 3.283 0 0 0 1.116-.852c.293-.352.49-.736.589-1.152l.457.607a3.053 3.053 0 0 1-.422.905 3.93 3.93 0 0 1-1.924 1.512 4.155 4.155 0 0 1-1.477.246c-.621 0-1.163-.117-1.626-.352a2.697 2.697 0 0 1-1.072-.958 2.598 2.598 0 0 1-.378-1.388c0-.469.099-.888.299-1.257a2.66 2.66 0 0 1 .861-.95 4.212 4.212 0 0 1 1.371-.597 7.164 7.164 0 0 1 1.811-.211h2.188ZM201.921 283.154V271.5h1.055V285h-.985l-.07-1.846Zm-6.601-2.812v-.185c0-.738.085-1.403.255-1.995.17-.598.413-1.107.73-1.529a3.237 3.237 0 0 1 1.16-.976 3.343 3.343 0 0 1 1.529-.343c.557 0 1.049.091 1.477.273.427.182.794.442 1.098.782.311.34.56.744.747 1.213.194.469.334.99.422 1.564v2.347a5.836 5.836 0 0 1-.386 1.486 3.953 3.953 0 0 1-.748 1.168c-.31.329-.685.583-1.125.765-.433.176-.934.264-1.502.264-.563 0-1.07-.117-1.521-.352a3.32 3.32 0 0 1-1.151-.993 4.85 4.85 0 0 1-.73-1.538 7.05 7.05 0 0 1-.255-1.951Zm1.055-.185v.185c0 .556.056 1.072.167 1.547.111.474.281.887.51 1.239.228.351.518.627.87.826.351.199.767.299 1.248.299.603 0 1.11-.114 1.52-.343a2.8 2.8 0 0 0 .985-.923c.246-.386.425-.808.536-1.265v-2.734a5.717 5.717 0 0 0-.308-.949 3.267 3.267 0 0 0-.553-.888 2.46 2.46 0 0 0-.879-.659c-.352-.17-.78-.255-1.283-.255-.487 0-.906.1-1.257.299a2.538 2.538 0 0 0-.879.835 3.87 3.87 0 0 0-.51 1.239 6.794 6.794 0 0 0-.167 1.547ZM216.317 283.154V271.5h1.055V285h-.984l-.071-1.846Zm-6.6-2.812v-.185c0-.738.085-1.403.255-1.995.17-.598.413-1.107.729-1.529a3.237 3.237 0 0 1 1.16-.976 3.344 3.344 0 0 1 1.53-.343c.556 0 1.048.091 1.476.273.428.182.794.442 1.099.782.31.34.559.744.747 1.213.193.469.334.99.422 1.564v2.347a5.837 5.837 0 0 1-.387 1.486 3.93 3.93 0 0 1-.747 1.168 3.224 3.224 0 0 1-1.125.765c-.434.176-.935.264-1.503.264a3.24 3.24 0 0 1-1.52-.352 3.323 3.323 0 0 1-1.152-.993 4.87 4.87 0 0 1-.729-1.538 7.05 7.05 0 0 1-.255-1.951Zm1.054-.185v.185c0 .556.056 1.072.167 1.547.112.474.282.887.51 1.239.229.351.519.627.87.826.352.199.768.299 1.248.299.604 0 1.111-.114 1.521-.343.41-.234.738-.542.984-.923.246-.386.425-.808.536-1.265v-2.734a5.71 5.71 0 0 0-.307-.949 3.295 3.295 0 0 0-.554-.888 2.442 2.442 0 0 0-.879-.659c-.351-.17-.779-.255-1.283-.255-.486 0-.905.1-1.257.299a2.556 2.556 0 0 0-.879.835 3.916 3.916 0 0 0-.51 1.239 6.794 6.794 0 0 0-.167 1.547ZM223.814 285.176a4.21 4.21 0 0 1-1.713-.343 4.105 4.105 0 0 1-1.354-.967 4.455 4.455 0 0 1-.888-1.476 5.564 5.564 0 0 1-.307-1.881v-.378c0-.733.108-1.395.325-1.986a4.62 4.62 0 0 1 .896-1.521 3.98 3.98 0 0 1 1.301-.967 3.64 3.64 0 0 1 1.547-.343c.604 0 1.14.109 1.608.326.469.211.862.512 1.178.905.322.387.566.847.73 1.38.164.527.246 1.11.246 1.749v.641h-7.198v-.896h6.152v-.123a3.867 3.867 0 0 0-.325-1.494c-.2-.469-.498-.85-.897-1.143-.398-.293-.896-.439-1.494-.439-.445 0-.855.093-1.23.281-.37.187-.689.457-.958.809a3.886 3.886 0 0 0-.616 1.239 5.577 5.577 0 0 0-.211 1.582v.378c0 .527.077 1.019.229 1.476.158.452.381.85.668 1.196.293.345.639.615 1.037.808.398.194.838.29 1.318.29.563 0 1.061-.102 1.495-.307.433-.211.823-.542 1.168-.993l.66.509a3.996 3.996 0 0 1-.774.844 3.485 3.485 0 0 1-1.098.615c-.428.153-.926.229-1.495.229ZM237.446 275.49v.862h-4.763v-.862h4.763Zm-3.014-2.443h1.046v9.641c0 .44.058.771.175.994.118.222.27.372.457.448.188.076.39.114.607.114.158 0 .31-.009.457-.026.146-.024.278-.047.395-.071l.044.888a2.763 2.763 0 0 1-.501.097c-.205.029-.41.044-.615.044-.404 0-.762-.073-1.072-.22-.311-.152-.554-.41-.73-.773-.175-.37-.263-.871-.263-1.503v-9.633ZM245.743 282.803v-7.313h1.055V285h-1.011l-.044-2.197Zm.194-1.758.544-.018c0 .598-.07 1.149-.21 1.653a3.674 3.674 0 0 1-.66 1.318 2.945 2.945 0 0 1-1.16.87c-.474.205-1.046.308-1.714.308-.463 0-.887-.065-1.274-.194a2.486 2.486 0 0 1-.984-.632c-.276-.288-.49-.66-.642-1.117-.147-.457-.22-1.01-.22-1.661v-6.082h1.046v6.1c0 .51.056.934.167 1.274.117.34.275.613.475.818.205.205.439.351.703.439.263.088.548.132.852.132.774 0 1.383-.149 1.828-.448.452-.299.771-.692.958-1.178.194-.492.291-1.02.291-1.582ZM257.45 284.271c.446 0 .862-.083 1.248-.247.393-.17.715-.419.967-.747.258-.334.404-.741.439-1.221h1.002a2.963 2.963 0 0 1-.553 1.617 3.475 3.475 0 0 1-1.319 1.107 3.999 3.999 0 0 1-1.784.396c-.662 0-1.248-.12-1.758-.361a3.53 3.53 0 0 1-1.265-1.002 4.607 4.607 0 0 1-.774-1.511 6.628 6.628 0 0 1-.255-1.872v-.369c0-.668.085-1.29.255-1.864a4.49 4.49 0 0 1 .774-1.511 3.49 3.49 0 0 1 1.265-1.011c.504-.24 1.087-.361 1.749-.361.68 0 1.289.138 1.829.414.544.275.978.665 1.3 1.168.328.504.507 1.102.536 1.793h-1.002c-.029-.509-.164-.949-.404-1.318a2.413 2.413 0 0 0-.949-.852 2.844 2.844 0 0 0-1.31-.299c-.539 0-.999.105-1.379.316a2.544 2.544 0 0 0-.932.853 3.893 3.893 0 0 0-.519 1.23 6.092 6.092 0 0 0-.167 1.442v.369c0 .509.053.996.159 1.459.111.457.284.864.518 1.221.24.358.551.642.932.853.386.205.852.308 1.397.308ZM269.008 283.295v-4.904c0-.452-.094-.841-.281-1.169a1.855 1.855 0 0 0-.827-.756c-.363-.176-.811-.264-1.344-.264a3.15 3.15 0 0 0-1.319.264c-.381.17-.682.401-.905.694a1.551 1.551 0 0 0-.325.958l-1.055-.009c0-.357.088-.703.264-1.037.176-.334.425-.633.747-.896a3.663 3.663 0 0 1 1.151-.624 4.47 4.47 0 0 1 1.486-.238c.679 0 1.277.115 1.793.343.521.229.928.572 1.221 1.029.293.457.44 1.031.44 1.722v4.597c0 .328.023.668.07 1.019.053.352.126.642.22.871V285h-1.116a4.244 4.244 0 0 1-.167-.791 8.237 8.237 0 0 1-.053-.914Zm.246-3.832.017.808h-2.065c-.539 0-1.022.05-1.45.15a3.3 3.3 0 0 0-1.072.422 2.018 2.018 0 0 0-.677.659 1.69 1.69 0 0 0-.229.879c0 .34.085.65.255.931.176.282.422.507.738.677.323.164.704.246 1.143.246.586 0 1.102-.108 1.547-.325a3.283 3.283 0 0 0 1.116-.852c.293-.352.489-.736.589-1.152l.457.607a3.053 3.053 0 0 1-.422.905 3.93 3.93 0 0 1-.782.861 4.14 4.14 0 0 1-1.143.651 4.146 4.146 0 0 1-1.476.246c-.621 0-1.163-.117-1.626-.352a2.69 2.69 0 0 1-1.072-.958 2.598 2.598 0 0 1-.378-1.388c0-.469.099-.888.298-1.257.2-.375.487-.692.862-.95a4.212 4.212 0 0 1 1.371-.597 7.156 7.156 0 0 1 1.81-.211h2.189ZM278.57 282.574c0-.258-.064-.512-.193-.764s-.378-.484-.747-.695c-.363-.211-.9-.389-1.609-.536a12.43 12.43 0 0 1-1.415-.395 4.12 4.12 0 0 1-1.037-.528 2.074 2.074 0 0 1-.641-.738c-.147-.287-.22-.627-.22-1.02 0-.351.076-.682.229-.993.158-.316.38-.592.667-.826a3.23 3.23 0 0 1 1.055-.562 4.515 4.515 0 0 1 1.398-.203c.732 0 1.359.126 1.881.378.527.246.928.583 1.204 1.011.281.428.421.911.421 1.45h-1.045c0-.328-.097-.638-.29-.931-.188-.293-.466-.534-.835-.721-.364-.188-.809-.281-1.336-.281-.545 0-.988.082-1.328.246-.339.164-.588.372-.747.624a1.495 1.495 0 0 0-.228.782c0 .211.032.404.097.58.07.17.193.328.369.475.181.146.439.284.773.413s.768.255 1.301.378c.768.17 1.394.378 1.881.624.492.24.855.539 1.09.896.234.352.351.78.351 1.283 0 .393-.082.753-.246 1.082-.164.322-.401.6-.712.835a3.358 3.358 0 0 1-1.107.544 4.987 4.987 0 0 1-1.442.194c-.802 0-1.482-.132-2.039-.396-.55-.269-.969-.621-1.257-1.054a2.554 2.554 0 0 1-.421-1.398h1.046c.035.492.19.882.465 1.169a2.3 2.3 0 0 0 1.011.598c.404.117.803.176 1.195.176.539 0 .991-.08 1.354-.238.363-.158.639-.366.826-.624.188-.258.281-.536.281-.835ZM287.781 283.295v-4.904c0-.452-.093-.841-.281-1.169a1.858 1.858 0 0 0-.826-.756c-.363-.176-.812-.264-1.345-.264-.492 0-.932.088-1.318.264-.381.17-.683.401-.906.694a1.558 1.558 0 0 0-.325.958l-1.054-.009c0-.357.087-.703.263-1.037.176-.334.425-.633.747-.896a3.669 3.669 0 0 1 1.152-.624 4.464 4.464 0 0 1 1.485-.238c.68 0 1.277.115 1.793.343.522.229.929.572 1.222 1.029.293.457.439 1.031.439 1.722v4.597c0 .328.024.668.07 1.019.053.352.126.642.22.871V285h-1.116a4.326 4.326 0 0 1-.167-.791 8.487 8.487 0 0 1-.053-.914Zm.246-3.832.018.808h-2.066c-.539 0-1.022.05-1.45.15a3.3 3.3 0 0 0-1.072.422 2.018 2.018 0 0 0-.677.659 1.699 1.699 0 0 0-.228.879c0 .34.085.65.255.931.175.282.422.507.738.677.322.164.703.246 1.143.246.585 0 1.101-.108 1.546-.325a3.277 3.277 0 0 0 1.117-.852c.293-.352.489-.736.588-1.152l.457.607a3.048 3.048 0 0 1-.421.905 3.935 3.935 0 0 1-1.925 1.512 4.155 4.155 0 0 1-1.477.246c-.621 0-1.163-.117-1.626-.352a2.697 2.697 0 0 1-1.072-.958 2.598 2.598 0 0 1-.378-1.388c0-.469.1-.888.299-1.257a2.66 2.66 0 0 1 .861-.95 4.212 4.212 0 0 1 1.371-.597 7.164 7.164 0 0 1 1.811-.211h2.188ZM292.659 283.339v1.23c0 .539-.111 1.058-.334 1.556a3.712 3.712 0 0 1-.905 1.274l-.615-.457a5.1 5.1 0 0 0 .457-.738c.123-.24.214-.492.272-.756a3.55 3.55 0 0 0 .097-.852v-1.257h1.028ZM298.926 280.395v-.291c0-.691.099-1.33.299-1.916a4.537 4.537 0 0 1 .852-1.52 3.874 3.874 0 0 1 1.345-.993 4.11 4.11 0 0 1 1.74-.361c.645 0 1.228.121 1.749.361.522.234.97.565 1.345.993.375.428.662.935.861 1.52.199.586.299 1.225.299 1.916v.291c0 .691-.1 1.33-.299 1.916a4.45 4.45 0 0 1-.861 1.511 3.893 3.893 0 0 1-1.336 1.002 4.19 4.19 0 0 1-1.74.352c-.645 0-1.228-.117-1.749-.352a3.975 3.975 0 0 1-1.345-1.002 4.45 4.45 0 0 1-.861-1.511 5.898 5.898 0 0 1-.299-1.916Zm1.046-.291v.291c0 .521.07 1.016.211 1.485.14.463.345.876.615 1.239.269.358.603.639 1.002.844.398.205.858.308 1.38.308.515 0 .969-.103 1.362-.308a2.905 2.905 0 0 0 1.002-.844c.269-.363.472-.776.606-1.239a5.13 5.13 0 0 0 .211-1.485v-.291c0-.515-.07-1.004-.211-1.467a3.762 3.762 0 0 0-.615-1.24 2.946 2.946 0 0 0-1.002-.861c-.398-.211-.855-.316-1.371-.316s-.973.105-1.371.316a3.063 3.063 0 0 0-1.002.861 4.031 4.031 0 0 0-.615 1.24 5.215 5.215 0 0 0-.202 1.467ZM317.497 284.271c.445 0 .861-.083 1.248-.247.393-.17.715-.419.967-.747.258-.334.404-.741.439-1.221h1.002a2.97 2.97 0 0 1-.553 1.617 3.475 3.475 0 0 1-1.319 1.107 4.002 4.002 0 0 1-1.784.396c-.662 0-1.248-.12-1.758-.361a3.522 3.522 0 0 1-1.265-1.002 4.607 4.607 0 0 1-.774-1.511 6.628 6.628 0 0 1-.255-1.872v-.369c0-.668.085-1.29.255-1.864a4.49 4.49 0 0 1 .774-1.511 3.482 3.482 0 0 1 1.265-1.011c.504-.24 1.087-.361 1.749-.361.68 0 1.289.138 1.828.414.545.275.979.665 1.301 1.168.328.504.507 1.102.536 1.793h-1.002c-.029-.509-.164-.949-.404-1.318a2.42 2.42 0 0 0-.949-.852 2.844 2.844 0 0 0-1.31-.299c-.539 0-.999.105-1.38.316-.38.205-.691.489-.931.853a3.87 3.87 0 0 0-.519 1.23 6.092 6.092 0 0 0-.167 1.442v.369c0 .509.053.996.158 1.459.112.457.285.864.519 1.221.24.358.551.642.932.853.386.205.852.308 1.397.308ZM322.691 280.395v-.291c0-.691.1-1.33.299-1.916a4.539 4.539 0 0 1 .853-1.52 3.874 3.874 0 0 1 1.345-.993 4.11 4.11 0 0 1 1.74-.361c.644 0 1.227.121 1.749.361a3.88 3.88 0 0 1 1.344.993c.375.428.663.935.862 1.52.199.586.299 1.225.299 1.916v.291c0 .691-.1 1.33-.299 1.916a4.452 4.452 0 0 1-.862 1.511 3.89 3.89 0 0 1-1.335 1.002 4.192 4.192 0 0 1-1.741.352 4.213 4.213 0 0 1-1.749-.352 3.98 3.98 0 0 1-1.344-1.002 4.452 4.452 0 0 1-.862-1.511 5.925 5.925 0 0 1-.299-1.916Zm1.046-.291v.291c0 .521.071 1.016.211 1.485.141.463.346.876.615 1.239.27.358.604.639 1.002.844.399.205.859.308 1.38.308.516 0 .97-.103 1.363-.308a2.905 2.905 0 0 0 1.002-.844c.269-.363.471-.776.606-1.239a5.13 5.13 0 0 0 .211-1.485v-.291c0-.515-.07-1.004-.211-1.467a3.8 3.8 0 0 0-.615-1.24 2.965 2.965 0 0 0-1.002-.861c-.399-.211-.856-.316-1.371-.316-.516 0-.973.105-1.371.316a3.063 3.063 0 0 0-1.002.861c-.27.364-.475.777-.616 1.24a5.252 5.252 0 0 0-.202 1.467ZM334.407 277.521V285h-1.046v-9.51h1.002l.044 2.031Zm-.237 2.135-.466-.263c.035-.563.15-1.09.343-1.582.193-.493.454-.926.782-1.301a3.642 3.642 0 0 1 1.169-.879 3.482 3.482 0 0 1 1.494-.317c.475 0 .9.065 1.275.194.375.129.694.334.958.615.263.281.463.642.597 1.081.141.44.211.976.211 1.608V285h-1.054v-6.196c0-.657-.091-1.169-.273-1.538-.182-.375-.439-.642-.773-.8-.334-.158-.73-.237-1.187-.237-.504 0-.946.111-1.327.333a3.072 3.072 0 0 0-.949.853 4.122 4.122 0 0 0-.58 1.116 3.864 3.864 0 0 0-.22 1.125ZM342.678 280.395v-.291c0-.691.099-1.33.299-1.916a4.537 4.537 0 0 1 .852-1.52 3.874 3.874 0 0 1 1.345-.993 4.11 4.11 0 0 1 1.74-.361c.645 0 1.228.121 1.749.361.522.234.97.565 1.345.993.375.428.662.935.861 1.52.199.586.299 1.225.299 1.916v.291c0 .691-.1 1.33-.299 1.916a4.45 4.45 0 0 1-.861 1.511 3.893 3.893 0 0 1-1.336 1.002 4.19 4.19 0 0 1-1.74.352c-.645 0-1.228-.117-1.749-.352a3.975 3.975 0 0 1-1.345-1.002 4.45 4.45 0 0 1-.861-1.511 5.898 5.898 0 0 1-.299-1.916Zm1.046-.291v.291c0 .521.07 1.016.211 1.485.14.463.345.876.615 1.239.269.358.603.639 1.002.844.398.205.858.308 1.38.308.515 0 .969-.103 1.362-.308a2.905 2.905 0 0 0 1.002-.844c.269-.363.472-.776.606-1.239a5.13 5.13 0 0 0 .211-1.485v-.291c0-.515-.07-1.004-.211-1.467a3.781 3.781 0 0 0-.615-1.24 2.946 2.946 0 0 0-1.002-.861c-.398-.211-.855-.316-1.371-.316s-.973.105-1.371.316a3.063 3.063 0 0 0-1.002.861 4.01 4.01 0 0 0-.615 1.24 5.215 5.215 0 0 0-.202 1.467Zm2.557-6.125 1.679-2.461h1.266l-2.031 2.461h-.914ZM356.854 284.271c.446 0 .862-.083 1.249-.247a2.4 2.4 0 0 0 .966-.747c.258-.334.405-.741.44-1.221h1.002a2.972 2.972 0 0 1-.554 1.617 3.472 3.472 0 0 1-1.318 1.107 4.003 4.003 0 0 1-1.785.396c-.662 0-1.248-.12-1.757-.361a3.534 3.534 0 0 1-1.266-1.002 4.586 4.586 0 0 1-.773-1.511 6.628 6.628 0 0 1-.255-1.872v-.369c0-.668.085-1.29.255-1.864.175-.58.433-1.084.773-1.511.34-.434.762-.771 1.266-1.011.504-.24 1.087-.361 1.749-.361.679 0 1.289.138 1.828.414.545.275.978.665 1.301 1.168.328.504.506 1.102.536 1.793h-1.002c-.03-.509-.164-.949-.405-1.318a2.413 2.413 0 0 0-.949-.852 2.84 2.84 0 0 0-1.309-.299c-.539 0-.999.105-1.38.316a2.544 2.544 0 0 0-.932.853 3.869 3.869 0 0 0-.518 1.23 6.04 6.04 0 0 0-.167 1.442v.369c0 .509.052.996.158 1.459.111.457.284.864.518 1.221.241.358.551.642.932.853.387.205.853.308 1.397.308ZM366.303 285.176a4.215 4.215 0 0 1-1.714-.343 4.105 4.105 0 0 1-1.354-.967 4.453 4.453 0 0 1-.887-1.476 5.564 5.564 0 0 1-.308-1.881v-.378c0-.733.108-1.395.325-1.986a4.606 4.606 0 0 1 .897-1.521 3.976 3.976 0 0 1 1.3-.967 3.643 3.643 0 0 1 1.547-.343c.604 0 1.14.109 1.609.326.469.211.861.512 1.178.905.322.387.565.847.729 1.38.164.527.246 1.11.246 1.749v.641h-7.198v-.896h6.152v-.123a3.867 3.867 0 0 0-.325-1.494 2.7 2.7 0 0 0-.896-1.143c-.399-.293-.897-.439-1.495-.439-.445 0-.855.093-1.23.281a2.785 2.785 0 0 0-.958.809 3.864 3.864 0 0 0-.615 1.239 5.541 5.541 0 0 0-.211 1.582v.378c0 .527.076 1.019.228 1.476.158.452.381.85.668 1.196.293.345.639.615 1.037.808.399.194.838.29 1.319.29.562 0 1.06-.102 1.494-.307.433-.211.823-.542 1.169-.993l.659.509a4.017 4.017 0 0 1-.773.844 3.49 3.49 0 0 1-1.099.615c-.428.153-.926.229-1.494.229ZM372.991 277.521V285h-1.046v-9.51h1.002l.044 2.031Zm-.237 2.135-.466-.263c.035-.563.15-1.09.343-1.582.193-.493.454-.926.782-1.301a3.642 3.642 0 0 1 1.169-.879 3.482 3.482 0 0 1 1.494-.317c.475 0 .9.065 1.275.194.375.129.694.334.958.615.263.281.462.642.597 1.081.141.44.211.976.211 1.608V285h-1.055v-6.196c0-.657-.09-1.169-.272-1.538-.182-.375-.439-.642-.773-.8-.334-.158-.73-.237-1.187-.237-.504 0-.946.111-1.327.333a3.072 3.072 0 0 0-.949.853 4.122 4.122 0 0 0-.58 1.116 3.864 3.864 0 0 0-.22 1.125ZM381.262 280.395v-.291c0-.691.099-1.33.299-1.916a4.537 4.537 0 0 1 .852-1.52 3.874 3.874 0 0 1 1.345-.993 4.11 4.11 0 0 1 1.74-.361c.645 0 1.228.121 1.749.361.522.234.97.565 1.345.993.375.428.662.935.861 1.52.199.586.299 1.225.299 1.916v.291c0 .691-.1 1.33-.299 1.916a4.45 4.45 0 0 1-.861 1.511 3.893 3.893 0 0 1-1.336 1.002 4.19 4.19 0 0 1-1.74.352c-.645 0-1.228-.117-1.749-.352a3.975 3.975 0 0 1-1.345-1.002 4.45 4.45 0 0 1-.861-1.511 5.898 5.898 0 0 1-.299-1.916Zm1.046-.291v.291c0 .521.07 1.016.211 1.485.14.463.345.876.615 1.239.269.358.603.639 1.002.844.398.205.858.308 1.38.308.515 0 .969-.103 1.362-.308a2.905 2.905 0 0 0 1.002-.844c.269-.363.472-.776.606-1.239a5.13 5.13 0 0 0 .211-1.485v-.291c0-.515-.07-1.004-.211-1.467a3.781 3.781 0 0 0-.615-1.24 2.946 2.946 0 0 0-1.002-.861c-.398-.211-.855-.316-1.371-.316s-.973.105-1.371.316a3.063 3.063 0 0 0-1.002.861 4.01 4.01 0 0 0-.615 1.24 5.215 5.215 0 0 0-.202 1.467ZM397.627 282.574a1.67 1.67 0 0 0-.193-.764c-.129-.252-.378-.484-.747-.695-.364-.211-.9-.389-1.609-.536a12.43 12.43 0 0 1-1.415-.395 4.103 4.103 0 0 1-1.037-.528 2.087 2.087 0 0 1-.642-.738c-.146-.287-.219-.627-.219-1.02 0-.351.076-.682.228-.993.158-.316.381-.592.668-.826a3.23 3.23 0 0 1 1.055-.562 4.513 4.513 0 0 1 1.397-.203c.733 0 1.36.126 1.881.378.527.246.929.583 1.204 1.011.281.428.422.911.422 1.45h-1.046c0-.328-.096-.638-.29-.931-.187-.293-.466-.534-.835-.721-.363-.188-.808-.281-1.336-.281-.545 0-.987.082-1.327.246-.34.164-.589.372-.747.624a1.495 1.495 0 0 0-.228.782c0 .211.032.404.096.58.071.17.194.328.369.475.182.146.44.284.774.413a9.84 9.84 0 0 0 1.301.378c.767.17 1.394.378 1.88.624.493.24.856.539 1.09.896.235.352.352.78.352 1.283 0 .393-.082.753-.246 1.082-.164.322-.402.6-.712.835a3.364 3.364 0 0 1-1.108.544 4.98 4.98 0 0 1-1.441.194c-.803 0-1.482-.132-2.039-.396-.551-.269-.97-.621-1.257-1.054a2.555 2.555 0 0 1-.422-1.398h1.046c.035.492.191.882.466 1.169a2.29 2.29 0 0 0 1.011.598 4.28 4.28 0 0 0 1.195.176c.539 0 .99-.08 1.354-.238.363-.158.638-.366.826-.624.187-.258.281-.536.281-.835ZM409.123 285.176a4.218 4.218 0 0 1-1.714-.343 4.101 4.101 0 0 1-1.353-.967 4.455 4.455 0 0 1-.888-1.476 5.564 5.564 0 0 1-.308-1.881v-.378c0-.733.109-1.395.326-1.986a4.587 4.587 0 0 1 .896-1.521 3.97 3.97 0 0 1 1.301-.967 3.64 3.64 0 0 1 1.547-.343c.603 0 1.139.109 1.608.326.469.211.861.512 1.178.905.322.387.565.847.729 1.38.164.527.246 1.11.246 1.749v.641h-7.198v-.896h6.153v-.123a3.868 3.868 0 0 0-.326-1.494 2.7 2.7 0 0 0-.896-1.143c-.399-.293-.897-.439-1.494-.439-.446 0-.856.093-1.231.281a2.794 2.794 0 0 0-.958.809 3.885 3.885 0 0 0-.615 1.239 5.541 5.541 0 0 0-.211 1.582v.378c0 .527.076 1.019.229 1.476.158.452.38.85.668 1.196.292.345.638.615 1.037.808.398.194.838.29 1.318.29.562 0 1.061-.102 1.494-.307.434-.211.823-.542 1.169-.993l.659.509a4.017 4.017 0 0 1-.773.844 3.49 3.49 0 0 1-1.099.615c-.428.153-.926.229-1.494.229ZM415.812 277.521V285h-1.046v-9.51h1.002l.044 2.031Zm-.238 2.135-.466-.263c.036-.563.15-1.09.343-1.582.194-.493.454-.926.782-1.301a3.642 3.642 0 0 1 1.169-.879c.452-.211.95-.317 1.494-.317.475 0 .9.065 1.275.194.375.129.694.334.958.615.264.281.463.642.598 1.081.14.44.211.976.211 1.608V285h-1.055v-6.196c0-.657-.091-1.169-.273-1.538-.181-.375-.439-.642-.773-.8-.334-.158-.73-.237-1.187-.237-.504 0-.946.111-1.327.333a3.072 3.072 0 0 0-.949.853 4.15 4.15 0 0 0-.58 1.116 3.864 3.864 0 0 0-.22 1.125ZM430.094 277.318v11.338h-1.055V275.49h.984l.071 1.828Zm6.609 2.839v.185c0 .709-.082 1.359-.246 1.951a4.824 4.824 0 0 1-.712 1.538 3.173 3.173 0 0 1-1.134.993c-.451.235-.964.352-1.538.352-.568 0-1.075-.088-1.52-.264a3.352 3.352 0 0 1-1.152-.747 3.94 3.94 0 0 1-.764-1.143 5.748 5.748 0 0 1-.396-1.441v-2.435a6.521 6.521 0 0 1 .431-1.564 4.22 4.22 0 0 1 .765-1.213c.316-.34.691-.6 1.125-.782.433-.182.928-.273 1.485-.273.58 0 1.096.115 1.547.343.457.223.841.548 1.151.976.317.422.554.931.712 1.529.164.592.246 1.257.246 1.995Zm-1.055.185v-.185c0-.556-.058-1.072-.175-1.547a3.792 3.792 0 0 0-.519-1.239 2.439 2.439 0 0 0-.879-.835c-.351-.199-.77-.299-1.257-.299-.504 0-.934.085-1.292.255a2.569 2.569 0 0 0-.879.659c-.234.27-.418.566-.553.888a5.156 5.156 0 0 0-.299.949v2.804c.111.445.29.858.536 1.239.246.375.574.677.984.906.416.222.923.334 1.521.334.48 0 .896-.1 1.248-.299.352-.2.642-.478.87-.835a3.9 3.9 0 0 0 .519-1.248c.117-.475.175-.991.175-1.547ZM442.715 285.176a4.215 4.215 0 0 1-1.714-.343 4.105 4.105 0 0 1-1.354-.967 4.47 4.47 0 0 1-.887-1.476 5.564 5.564 0 0 1-.308-1.881v-.378c0-.733.109-1.395.325-1.986a4.606 4.606 0 0 1 .897-1.521 3.97 3.97 0 0 1 1.301-.967 3.635 3.635 0 0 1 1.546-.343c.604 0 1.14.109 1.609.326.469.211.861.512 1.178.905.322.387.565.847.729 1.38.164.527.246 1.11.246 1.749v.641h-7.198v-.896h6.152v-.123a3.849 3.849 0 0 0-.325-1.494 2.7 2.7 0 0 0-.896-1.143c-.399-.293-.897-.439-1.495-.439-.445 0-.855.093-1.23.281a2.794 2.794 0 0 0-.958.809 3.864 3.864 0 0 0-.615 1.239 5.541 5.541 0 0 0-.211 1.582v.378c0 .527.076 1.019.228 1.476.159.452.381.85.668 1.196.293.345.639.615 1.037.808.399.194.838.29 1.319.29.562 0 1.06-.102 1.494-.307.434-.211.823-.542 1.169-.993l.659.509a4.017 4.017 0 0 1-.773.844 3.49 3.49 0 0 1-1.099.615c-.428.153-.926.229-1.494.229ZM449.403 277.063V285h-1.046v-9.51h1.02l.026 1.573Zm3.367-1.643-.027.967a6.32 6.32 0 0 0-.343-.044 3.36 3.36 0 0 0-.36-.018c-.457 0-.858.085-1.204.255-.34.164-.627.396-.861.694a3.116 3.116 0 0 0-.537 1.038 4.817 4.817 0 0 0-.21 1.265l-.387.15c0-.622.064-1.199.193-1.732a4.36 4.36 0 0 1 .589-1.397c.27-.405.606-.718 1.011-.941.41-.228.89-.343 1.441-.343.135 0 .267.012.396.036.134.017.234.041.299.07ZM460.117 282.574c0-.258-.064-.512-.193-.764s-.378-.484-.747-.695c-.364-.211-.9-.389-1.609-.536a12.43 12.43 0 0 1-1.415-.395 4.103 4.103 0 0 1-1.037-.528 2.074 2.074 0 0 1-.641-.738c-.147-.287-.22-.627-.22-1.02 0-.351.076-.682.228-.993.159-.316.381-.592.668-.826a3.23 3.23 0 0 1 1.055-.562 4.515 4.515 0 0 1 1.398-.203c.732 0 1.359.126 1.88.378.528.246.929.583 1.204 1.011.282.428.422.911.422 1.45h-1.046c0-.328-.096-.638-.29-.931-.187-.293-.465-.534-.835-.721-.363-.188-.808-.281-1.335-.281-.545 0-.988.082-1.328.246-.339.164-.588.372-.747.624a1.495 1.495 0 0 0-.228.782c0 .211.032.404.096.58.071.17.194.328.37.475.181.146.439.284.773.413s.768.255 1.301.378c.767.17 1.394.378 1.881.624.492.24.855.539 1.09.896.234.352.351.78.351 1.283 0 .393-.082.753-.246 1.082-.164.322-.401.6-.712.835a3.368 3.368 0 0 1-1.107.544 4.992 4.992 0 0 1-1.442.194c-.802 0-1.482-.132-2.039-.396-.551-.269-.97-.621-1.257-1.054a2.555 2.555 0 0 1-.422-1.398h1.046c.036.492.191.882.466 1.169.276.281.612.481 1.011.598.404.117.803.176 1.195.176.539 0 .99-.08 1.354-.238.363-.158.638-.366.826-.624.187-.258.281-.536.281-.835ZM462.965 280.395v-.291c0-.691.099-1.33.299-1.916a4.537 4.537 0 0 1 .852-1.52 3.874 3.874 0 0 1 1.345-.993 4.11 4.11 0 0 1 1.74-.361c.645 0 1.228.121 1.749.361.522.234.97.565 1.345.993.375.428.662.935.861 1.52.199.586.299 1.225.299 1.916v.291c0 .691-.1 1.33-.299 1.916a4.45 4.45 0 0 1-.861 1.511 3.893 3.893 0 0 1-1.336 1.002 4.188 4.188 0 0 1-1.74.352c-.645 0-1.228-.117-1.749-.352a3.975 3.975 0 0 1-1.345-1.002 4.45 4.45 0 0 1-.861-1.511 5.898 5.898 0 0 1-.299-1.916Zm1.046-.291v.291c0 .521.07 1.016.211 1.485.14.463.345.876.615 1.239.269.358.603.639 1.002.844.398.205.858.308 1.38.308.515 0 .969-.103 1.362-.308a2.905 2.905 0 0 0 1.002-.844c.27-.363.472-.776.606-1.239a5.13 5.13 0 0 0 .211-1.485v-.291c0-.515-.07-1.004-.211-1.467a3.762 3.762 0 0 0-.615-1.24 2.946 2.946 0 0 0-1.002-.861c-.398-.211-.855-.316-1.371-.316-.515 0-.972.105-1.371.316a3.083 3.083 0 0 0-1.002.861 4.054 4.054 0 0 0-.615 1.24 5.215 5.215 0 0 0-.202 1.467ZM474.681 277.521V285h-1.046v-9.51h1.002l.044 2.031Zm-.238 2.135-.465-.263c.035-.563.149-1.09.342-1.582.194-.493.454-.926.783-1.301a3.638 3.638 0 0 1 1.168-.879 3.49 3.49 0 0 1 1.495-.317c.474 0 .899.065 1.274.194s.694.334.958.615c.264.281.463.642.598 1.081.14.44.211.976.211 1.608V285h-1.055v-6.196c0-.657-.091-1.169-.273-1.538-.181-.375-.439-.642-.773-.8-.334-.158-.729-.237-1.186-.237-.504 0-.947.111-1.328.333a3.072 3.072 0 0 0-.949.853 4.15 4.15 0 0 0-.58 1.116 3.864 3.864 0 0 0-.22 1.125ZM489.314 283.295v-4.904c0-.452-.093-.841-.281-1.169a1.852 1.852 0 0 0-.826-.756c-.363-.176-.811-.264-1.345-.264a3.15 3.15 0 0 0-1.318.264c-.381.17-.683.401-.905.694a1.552 1.552 0 0 0-.326.958l-1.054-.009c0-.357.088-.703.263-1.037.176-.334.425-.633.748-.896a3.663 3.663 0 0 1 1.151-.624 4.464 4.464 0 0 1 1.485-.238c.68 0 1.278.115 1.793.343.522.229.929.572 1.222 1.029.293.457.439 1.031.439 1.722v4.597c0 .328.024.668.071 1.019.052.352.126.642.219.871V285h-1.116a4.326 4.326 0 0 1-.167-.791 8.487 8.487 0 0 1-.053-.914Zm.247-3.832.017.808h-2.065a6.4 6.4 0 0 0-1.451.15 3.308 3.308 0 0 0-1.072.422 2.027 2.027 0 0 0-.677.659 1.699 1.699 0 0 0-.228.879c0 .34.085.65.255.931.176.282.422.507.738.677.322.164.703.246 1.143.246.586 0 1.101-.108 1.547-.325a3.283 3.283 0 0 0 1.116-.852c.293-.352.489-.736.589-1.152l.457.607a3.053 3.053 0 0 1-.422.905 3.93 3.93 0 0 1-.782.861 4.169 4.169 0 0 1-1.143.651 4.155 4.155 0 0 1-1.477.246c-.621 0-1.163-.117-1.626-.352a2.697 2.697 0 0 1-1.072-.958 2.598 2.598 0 0 1-.378-1.388c0-.469.1-.888.299-1.257a2.66 2.66 0 0 1 .861-.95 4.208 4.208 0 0 1 1.372-.597 7.156 7.156 0 0 1 1.81-.211h2.189ZM500.397 284.051l2.962-8.561h1.134l-4.025 11.039a8.552 8.552 0 0 1-.317.721 3.329 3.329 0 0 1-.492.756 2.258 2.258 0 0 1-.756.598c-.299.158-.665.237-1.098.237-.112 0-.255-.015-.431-.044a2.75 2.75 0 0 1-.369-.07l-.009-.888a2.99 2.99 0 0 0 .536.061c.381 0 .7-.064.958-.193a1.68 1.68 0 0 0 .659-.58c.176-.252.331-.568.466-.949l.782-2.127Zm-2.768-8.561 3.032 8.165.281 1.099-.764.431-3.692-9.695h1.143ZM220.536 307.295v-4.904c0-.452-.094-.841-.281-1.169a1.858 1.858 0 0 0-.826-.756c-.364-.176-.812-.264-1.345-.264-.492 0-.932.088-1.318.264-.381.17-.683.401-.906.694a1.558 1.558 0 0 0-.325.958l-1.055-.009c0-.357.088-.703.264-1.037.176-.334.425-.633.747-.896a3.658 3.658 0 0 1 1.152-.624 4.464 4.464 0 0 1 1.485-.238c.68 0 1.277.115 1.793.343.521.229.929.572 1.222 1.029.293.457.439 1.031.439 1.722v4.597c0 .328.023.668.07 1.019.053.352.126.642.22.871V309h-1.116a4.326 4.326 0 0 1-.167-.791 8.487 8.487 0 0 1-.053-.914Zm.246-3.832.018.808h-2.066c-.539 0-1.022.05-1.45.15a3.3 3.3 0 0 0-1.072.422 2.018 2.018 0 0 0-.677.659 1.699 1.699 0 0 0-.228.879c0 .34.085.65.255.931.175.282.421.507.738.677.322.164.703.246 1.142.246.586 0 1.102-.108 1.547-.325a3.283 3.283 0 0 0 1.116-.852c.293-.352.49-.736.589-1.152l.457.607a3.028 3.028 0 0 1-.422.905 3.904 3.904 0 0 1-.782.861 4.148 4.148 0 0 1-1.142.651 4.155 4.155 0 0 1-1.477.246c-.621 0-1.163-.117-1.626-.352a2.697 2.697 0 0 1-1.072-.958 2.598 2.598 0 0 1-.378-1.388c0-.469.1-.888.299-1.257a2.66 2.66 0 0 1 .861-.95 4.212 4.212 0 0 1 1.371-.597 7.164 7.164 0 0 1 1.811-.211h2.188ZM230.661 299.49h.976v9.343c0 .826-.158 1.535-.475 2.127a3.23 3.23 0 0 1-1.327 1.362c-.568.317-1.239.475-2.013.475-.392 0-.797-.062-1.213-.185a4.168 4.168 0 0 1-1.169-.545 3.572 3.572 0 0 1-.931-.896l.589-.642c.386.469.799.812 1.239 1.029.439.222.914.334 1.424.334.603 0 1.113-.121 1.529-.361.422-.24.741-.586.958-1.037.223-.451.334-.993.334-1.626v-7.286l.079-2.092Zm-6.68 4.852v-.185c0-.738.082-1.403.247-1.995a4.62 4.62 0 0 1 .729-1.529 3.16 3.16 0 0 1 1.151-.976 3.42 3.42 0 0 1 1.547-.343c.551 0 1.04.091 1.468.273.428.182.797.442 1.107.782.311.34.56.744.748 1.213.193.469.334.99.421 1.564v2.347a5.836 5.836 0 0 1-.386 1.486 3.97 3.97 0 0 1-.747 1.168 3.224 3.224 0 0 1-1.125.765c-.434.176-.935.264-1.503.264a3.264 3.264 0 0 1-1.53-.352 3.32 3.32 0 0 1-1.151-.993 4.848 4.848 0 0 1-.729-1.538 7.25 7.25 0 0 1-.247-1.951Zm1.055-.185v.185c0 .556.056 1.072.167 1.547.111.474.281.887.51 1.239.228.351.518.627.87.826.352.199.765.299 1.239.299.604 0 1.111-.114 1.521-.343.41-.234.735-.542.975-.923.241-.386.416-.808.528-1.265v-2.734a5.234 5.234 0 0 0-.299-.949 3.123 3.123 0 0 0-.545-.888 2.46 2.46 0 0 0-.879-.659c-.352-.17-.779-.255-1.283-.255-.481 0-.9.1-1.257.299a2.462 2.462 0 0 0-.87.835 3.87 3.87 0 0 0-.51 1.239 6.794 6.794 0 0 0-.167 1.547ZM238.062 309.176a4.211 4.211 0 0 1-1.714-.343 4.105 4.105 0 0 1-1.354-.967 4.455 4.455 0 0 1-.888-1.476 5.564 5.564 0 0 1-.307-1.881v-.378c0-.733.108-1.395.325-1.986a4.606 4.606 0 0 1 .897-1.521c.38-.422.814-.744 1.3-.967a3.64 3.64 0 0 1 1.547-.343c.604 0 1.14.109 1.609.326.468.211.861.512 1.177.905.323.387.566.847.73 1.38.164.527.246 1.11.246 1.749v.641h-7.198v-.896h6.152v-.123a3.867 3.867 0 0 0-.325-1.494 2.695 2.695 0 0 0-.897-1.143c-.398-.293-.896-.439-1.494-.439-.445 0-.855.093-1.23.281a2.785 2.785 0 0 0-.958.809 3.886 3.886 0 0 0-.616 1.239 5.578 5.578 0 0 0-.21 1.582v.378c0 .527.076 1.019.228 1.476.158.452.381.85.668 1.196.293.345.639.615 1.037.808.399.194.838.29 1.318.29.563 0 1.061-.102 1.495-.307.433-.211.823-.542 1.169-.993l.659.509a3.996 3.996 0 0 1-.774.844 3.485 3.485 0 0 1-1.098.615c-.428.153-.926.229-1.494.229ZM244.75 301.521V309h-1.046v-9.51h1.002l.044 2.031Zm-.237 2.135-.466-.263c.035-.563.149-1.09.343-1.582.193-.493.454-.926.782-1.301a3.642 3.642 0 0 1 1.169-.879 3.482 3.482 0 0 1 1.494-.317c.475 0 .899.065 1.274.194s.695.334.958.615c.264.281.463.642.598 1.081.141.44.211.976.211 1.608V309h-1.055v-6.196c0-.657-.091-1.169-.272-1.538-.182-.375-.44-.642-.774-.8-.334-.158-.729-.237-1.186-.237-.504 0-.946.111-1.327.333a3.076 3.076 0 0 0-.95.853 4.179 4.179 0 0 0-.58 1.116 3.862 3.862 0 0 0-.219 1.125ZM259.779 307.154V295.5h1.055V309h-.984l-.071-1.846Zm-6.6-2.812v-.185c0-.738.085-1.403.255-1.995.17-.598.413-1.107.729-1.529a3.237 3.237 0 0 1 1.16-.976 3.344 3.344 0 0 1 1.53-.343c.556 0 1.048.091 1.476.273.428.182.794.442 1.099.782.31.34.559.744.747 1.213.193.469.334.99.422 1.564v2.347a5.879 5.879 0 0 1-.387 1.486 3.97 3.97 0 0 1-.747 1.168 3.224 3.224 0 0 1-1.125.765c-.434.176-.935.264-1.503.264a3.244 3.244 0 0 1-1.521-.352 3.32 3.32 0 0 1-1.151-.993 4.87 4.87 0 0 1-.729-1.538 7.05 7.05 0 0 1-.255-1.951Zm1.054-.185v.185c0 .556.056 1.072.167 1.547.112.474.282.887.51 1.239.229.351.519.627.87.826.352.199.768.299 1.248.299.604 0 1.111-.114 1.521-.343.41-.234.738-.542.984-.923.246-.386.425-.808.536-1.265v-2.734a5.805 5.805 0 0 0-.307-.949 3.295 3.295 0 0 0-.554-.888 2.45 2.45 0 0 0-.879-.659c-.351-.17-.779-.255-1.283-.255-.486 0-.905.1-1.257.299a2.556 2.556 0 0 0-.879.835 3.916 3.916 0 0 0-.51 1.239 6.794 6.794 0 0 0-.167 1.547ZM269.386 307.295v-4.904c0-.452-.094-.841-.282-1.169a1.847 1.847 0 0 0-.826-.756c-.363-.176-.811-.264-1.344-.264a3.15 3.15 0 0 0-1.319.264c-.381.17-.682.401-.905.694a1.551 1.551 0 0 0-.325.958l-1.055-.009c0-.357.088-.703.264-1.037.176-.334.425-.633.747-.896a3.663 3.663 0 0 1 1.151-.624 4.466 4.466 0 0 1 1.486-.238c.679 0 1.277.115 1.793.343.521.229.928.572 1.221 1.029.293.457.44 1.031.44 1.722v4.597c0 .328.023.668.07 1.019.053.352.126.642.22.871V309h-1.117a4.326 4.326 0 0 1-.167-.791 8.476 8.476 0 0 1-.052-.914Zm.246-3.832.017.808h-2.065c-.539 0-1.022.05-1.45.15a3.29 3.29 0 0 0-1.072.422 2.018 2.018 0 0 0-.677.659 1.69 1.69 0 0 0-.229.879c0 .34.085.65.255.931.176.282.422.507.738.677.323.164.704.246 1.143.246.586 0 1.102-.108 1.547-.325a3.283 3.283 0 0 0 1.116-.852c.293-.352.489-.736.589-1.152l.457.607a3.053 3.053 0 0 1-.422.905 3.93 3.93 0 0 1-.782.861 4.14 4.14 0 0 1-1.143.651 4.146 4.146 0 0 1-1.476.246c-.621 0-1.163-.117-1.626-.352a2.7 2.7 0 0 1-1.073-.958 2.606 2.606 0 0 1-.377-1.388c0-.469.099-.888.298-1.257.2-.375.487-.692.862-.95a4.212 4.212 0 0 1 1.371-.597 7.156 7.156 0 0 1 1.81-.211h2.189ZM283.738 306.803v-7.313h1.055V309h-1.011l-.044-2.197Zm.194-1.758.545-.018a6.16 6.16 0 0 1-.211 1.653 3.674 3.674 0 0 1-.66 1.318 2.938 2.938 0 0 1-1.16.87c-.474.205-1.046.308-1.714.308a4.01 4.01 0 0 1-1.274-.194 2.486 2.486 0 0 1-.984-.632c-.276-.288-.49-.66-.642-1.117-.146-.457-.22-1.01-.22-1.661v-6.082h1.046v6.1c0 .51.056.934.167 1.274.117.34.276.613.475.818.205.205.439.351.703.439.264.088.548.132.852.132.774 0 1.383-.149 1.829-.448.451-.299.77-.692.958-1.178.193-.492.29-1.02.29-1.582ZM288.59 301.521V309h-1.046v-9.51h1.002l.044 2.031Zm-.237 2.135-.466-.263c.035-.563.149-1.09.342-1.582.194-.493.455-.926.783-1.301a3.631 3.631 0 0 1 1.169-.879 3.482 3.482 0 0 1 1.494-.317c.474 0 .899.065 1.274.194s.695.334.958.615c.264.281.463.642.598 1.081.141.44.211.976.211 1.608V309h-1.055v-6.196c0-.657-.091-1.169-.272-1.538-.182-.375-.44-.642-.774-.8-.334-.158-.729-.237-1.186-.237-.504 0-.947.111-1.327.333a3.076 3.076 0 0 0-.95.853 4.15 4.15 0 0 0-.58 1.116 3.862 3.862 0 0 0-.219 1.125ZM303.224 307.295v-4.904c0-.452-.094-.841-.282-1.169a1.852 1.852 0 0 0-.826-.756c-.363-.176-.811-.264-1.345-.264a3.15 3.15 0 0 0-1.318.264c-.381.17-.682.401-.905.694a1.551 1.551 0 0 0-.325.958l-1.055-.009c0-.357.088-.703.264-1.037.175-.334.424-.633.747-.896a3.663 3.663 0 0 1 1.151-.624 4.464 4.464 0 0 1 1.485-.238c.68 0 1.278.115 1.793.343.522.229.929.572 1.222 1.029.293.457.44 1.031.44 1.722v4.597c0 .328.023.668.07 1.019.053.352.126.642.22.871V309h-1.117a4.326 4.326 0 0 1-.167-.791 8.476 8.476 0 0 1-.052-.914Zm.246-3.832.017.808h-2.065c-.539 0-1.023.05-1.45.15-.422.094-.78.234-1.073.422a2.015 2.015 0 0 0-.676.659 1.69 1.69 0 0 0-.229.879c0 .34.085.65.255.931.176.282.422.507.738.677.323.164.703.246 1.143.246.586 0 1.101-.108 1.547-.325a3.283 3.283 0 0 0 1.116-.852c.293-.352.489-.736.589-1.152l.457.607a3.053 3.053 0 0 1-.422.905 3.93 3.93 0 0 1-.782.861 4.154 4.154 0 0 1-1.143.651 4.15 4.15 0 0 1-1.476.246c-.621 0-1.163-.117-1.626-.352a2.7 2.7 0 0 1-1.073-.958 2.598 2.598 0 0 1-.378-1.388c0-.469.1-.888.299-1.257.2-.375.487-.692.862-.95.38-.263.838-.462 1.371-.597a7.156 7.156 0 0 1 1.81-.211h2.189ZM314.992 308.271c.446 0 .862-.083 1.248-.247.393-.17.715-.419.967-.747.258-.334.404-.741.439-1.221h1.002a2.963 2.963 0 0 1-.553 1.617 3.475 3.475 0 0 1-1.319 1.107 3.999 3.999 0 0 1-1.784.396c-.662 0-1.248-.12-1.758-.361a3.53 3.53 0 0 1-1.265-1.002 4.607 4.607 0 0 1-.774-1.511 6.628 6.628 0 0 1-.255-1.872v-.369c0-.668.085-1.29.255-1.864a4.49 4.49 0 0 1 .774-1.511 3.49 3.49 0 0 1 1.265-1.011c.504-.24 1.087-.361 1.749-.361.68 0 1.289.138 1.829.414.544.275.978.665 1.3 1.168.328.504.507 1.102.536 1.793h-1.002c-.029-.509-.164-.949-.404-1.318a2.413 2.413 0 0 0-.949-.852 2.844 2.844 0 0 0-1.31-.299c-.539 0-.999.105-1.379.316a2.544 2.544 0 0 0-.932.853 3.893 3.893 0 0 0-.519 1.23 6.092 6.092 0 0 0-.167 1.442v.369c0 .509.053.996.159 1.459.111.457.284.864.518 1.221.24.358.551.642.932.853.386.205.852.308 1.397.308ZM321.936 299.49V309h-1.046v-9.51h1.046Zm-1.231-2.751c0-.199.062-.366.185-.501.129-.14.304-.211.527-.211.223 0 .398.071.527.211a.68.68 0 0 1 .202.501.696.696 0 0 1-.202.501c-.129.135-.304.202-.527.202-.223 0-.398-.067-.527-.202a.734.734 0 0 1-.185-.501ZM328.404 299.49v.862h-4.763v-.862h4.763Zm-3.014-2.443h1.046v9.641c0 .44.058.771.175.994.118.222.27.372.457.448.188.076.39.114.607.114.158 0 .31-.009.457-.026.146-.024.278-.047.395-.071l.044.888a2.763 2.763 0 0 1-.501.097c-.205.029-.41.044-.615.044-.404 0-.762-.073-1.072-.22-.311-.152-.554-.41-.73-.773-.175-.37-.263-.871-.263-1.503v-9.633ZM336.394 307.295v-4.904c0-.452-.094-.841-.282-1.169a1.852 1.852 0 0 0-.826-.756c-.363-.176-.811-.264-1.345-.264a3.15 3.15 0 0 0-1.318.264c-.381.17-.683.401-.905.694a1.551 1.551 0 0 0-.325.958l-1.055-.009c0-.357.088-.703.264-1.037.175-.334.424-.633.747-.896a3.663 3.663 0 0 1 1.151-.624 4.464 4.464 0 0 1 1.485-.238c.68 0 1.278.115 1.793.343.522.229.929.572 1.222 1.029.293.457.439 1.031.439 1.722v4.597c0 .328.024.668.071 1.019.052.352.126.642.219.871V309h-1.116a4.326 4.326 0 0 1-.167-.791 8.476 8.476 0 0 1-.052-.914Zm.246-3.832.017.808h-2.065c-.539 0-1.023.05-1.45.15-.422.094-.78.234-1.073.422a2.015 2.015 0 0 0-.676.659 1.69 1.69 0 0 0-.229.879c0 .34.085.65.255.931.176.282.422.507.738.677.322.164.703.246 1.143.246.586 0 1.101-.108 1.547-.325a3.283 3.283 0 0 0 1.116-.852c.293-.352.489-.736.589-1.152l.457.607a3.053 3.053 0 0 1-.422.905 3.93 3.93 0 0 1-.782.861 4.154 4.154 0 0 1-1.143.651 4.15 4.15 0 0 1-1.476.246c-.622 0-1.164-.117-1.626-.352a2.7 2.7 0 0 1-1.073-.958 2.598 2.598 0 0 1-.378-1.388c0-.469.1-.888.299-1.257.199-.375.487-.692.862-.95.38-.263.837-.462 1.371-.597a7.156 7.156 0 0 1 1.81-.211h2.189ZM348.329 309.176a4.218 4.218 0 0 1-1.714-.343 4.101 4.101 0 0 1-1.353-.967 4.455 4.455 0 0 1-.888-1.476 5.564 5.564 0 0 1-.308-1.881v-.378c0-.733.109-1.395.326-1.986a4.587 4.587 0 0 1 .896-1.521 3.98 3.98 0 0 1 1.301-.967 3.64 3.64 0 0 1 1.547-.343c.603 0 1.139.109 1.608.326.469.211.861.512 1.178.905.322.387.565.847.729 1.38.164.527.246 1.11.246 1.749v.641h-7.198v-.896h6.153v-.123a3.868 3.868 0 0 0-.326-1.494 2.7 2.7 0 0 0-.896-1.143c-.399-.293-.897-.439-1.494-.439-.446 0-.856.093-1.231.281a2.794 2.794 0 0 0-.958.809 3.905 3.905 0 0 0-.615 1.239 5.541 5.541 0 0 0-.211 1.582v.378c0 .527.076 1.019.229 1.476.158.452.38.85.668 1.196.293.345.638.615 1.037.808.398.194.838.29 1.318.29.563 0 1.061-.102 1.494-.307.434-.211.823-.542 1.169-.993l.659.509a4.017 4.017 0 0 1-.773.844 3.49 3.49 0 0 1-1.099.615c-.427.153-.926.229-1.494.229ZM355.018 301.521V309h-1.046v-9.51h1.002l.044 2.031Zm-.238 2.135-.466-.263c.036-.563.15-1.09.343-1.582.194-.493.454-.926.782-1.301a3.642 3.642 0 0 1 1.169-.879 3.49 3.49 0 0 1 1.495-.317c.474 0 .899.065 1.274.194s.694.334.958.615c.264.281.463.642.598 1.081.14.44.211.976.211 1.608V309h-1.055v-6.196c0-.657-.091-1.169-.273-1.538-.181-.375-.439-.642-.773-.8-.334-.158-.73-.237-1.187-.237-.503 0-.946.111-1.327.333a3.072 3.072 0 0 0-.949.853 4.15 4.15 0 0 0-.58 1.116 3.864 3.864 0 0 0-.22 1.125ZM367.683 304.395v-.291c0-.691.099-1.33.298-1.916.2-.585.484-1.092.853-1.52a3.874 3.874 0 0 1 1.345-.993 4.11 4.11 0 0 1 1.74-.361c.644 0 1.227.121 1.749.361.521.234.97.565 1.345.993.375.428.662.935.861 1.52.199.586.299 1.225.299 1.916v.291c0 .691-.1 1.33-.299 1.916a4.45 4.45 0 0 1-.861 1.511 3.893 3.893 0 0 1-1.336 1.002 4.19 4.19 0 0 1-1.74.352c-.645 0-1.228-.117-1.749-.352a3.975 3.975 0 0 1-1.345-1.002 4.469 4.469 0 0 1-.862-1.511 5.925 5.925 0 0 1-.298-1.916Zm1.046-.291v.291c0 .521.07 1.016.21 1.485.141.463.346.876.616 1.239.269.358.603.639 1.002.844.398.205.858.308 1.38.308.515 0 .969-.103 1.362-.308a2.905 2.905 0 0 0 1.002-.844c.269-.363.471-.776.606-1.239a5.13 5.13 0 0 0 .211-1.485v-.291c0-.515-.07-1.004-.211-1.467a3.8 3.8 0 0 0-.615-1.24 2.965 2.965 0 0 0-1.002-.861c-.398-.211-.855-.316-1.371-.316s-.973.105-1.371.316a3.063 3.063 0 0 0-1.002.861 4.01 4.01 0 0 0-.615 1.24 5.215 5.215 0 0 0-.202 1.467ZM378.335 295.5h1.055v11.654l-.071 1.846h-.984v-13.5Zm7.673 8.657v.185c0 .709-.082 1.359-.246 1.951a4.846 4.846 0 0 1-.712 1.538 3.251 3.251 0 0 1-1.143.993c-.445.235-.958.352-1.538.352-.568 0-1.072-.088-1.512-.264a3.224 3.224 0 0 1-1.125-.765 3.97 3.97 0 0 1-.747-1.168 6.1 6.1 0 0 1-.395-1.486v-2.347a6.761 6.761 0 0 1 .422-1.564c.193-.469.442-.873.747-1.213.31-.34.679-.6 1.107-.782.434-.182.929-.273 1.486-.273.58 0 1.095.115 1.546.343.457.223.841.548 1.152.976.31.422.548.931.712 1.529.164.592.246 1.257.246 1.995Zm-1.064.185v-.185c0-.556-.052-1.072-.158-1.547a3.73 3.73 0 0 0-.501-1.239 2.405 2.405 0 0 0-.861-.835c-.352-.199-.774-.299-1.266-.299-.504 0-.934.085-1.292.255a2.569 2.569 0 0 0-.879.659c-.228.27-.41.566-.545.888a5.228 5.228 0 0 0-.298.949v2.734c.099.439.272.852.518 1.239.246.387.577.7.993.94.416.235.923.352 1.521.352.48 0 .893-.1 1.239-.299.352-.199.639-.475.861-.826a3.73 3.73 0 0 0 .501-1.239c.112-.475.167-.991.167-1.547ZM389.383 301.063V309h-1.046v-9.51h1.019l.027 1.573Zm3.366-1.643-.026.967a6.585 6.585 0 0 0-.343-.044 3.373 3.373 0 0 0-.36-.018c-.458 0-.859.085-1.205.255a2.427 2.427 0 0 0-.861.694 3.114 3.114 0 0 0-.536 1.038 4.858 4.858 0 0 0-.211 1.265l-.387.15c0-.622.065-1.199.194-1.732a4.36 4.36 0 0 1 .589-1.397 2.862 2.862 0 0 1 1.01-.941c.41-.228.891-.343 1.442-.343.134 0 .266.012.395.036.135.017.235.041.299.07ZM399.833 307.295v-4.904c0-.452-.094-.841-.281-1.169a1.858 1.858 0 0 0-.826-.756c-.364-.176-.812-.264-1.345-.264-.492 0-.932.088-1.319.264-.38.17-.682.401-.905.694a1.551 1.551 0 0 0-.325.958l-1.055-.009c0-.357.088-.703.264-1.037.176-.334.425-.633.747-.896a3.663 3.663 0 0 1 1.151-.624 4.475 4.475 0 0 1 1.486-.238c.679 0 1.277.115 1.793.343.521.229.928.572 1.221 1.029.293.457.44 1.031.44 1.722v4.597c0 .328.023.668.07 1.019.053.352.126.642.22.871V309h-1.116a4.244 4.244 0 0 1-.167-.791 8.487 8.487 0 0 1-.053-.914Zm.246-3.832.018.808h-2.066c-.539 0-1.022.05-1.45.15a3.3 3.3 0 0 0-1.072.422 2.018 2.018 0 0 0-.677.659 1.699 1.699 0 0 0-.228.879c0 .34.084.65.254.931.176.282.422.507.739.677.322.164.703.246 1.142.246.586 0 1.102-.108 1.547-.325a3.283 3.283 0 0 0 1.116-.852c.293-.352.49-.736.589-1.152l.457.607a3.053 3.053 0 0 1-.422.905 3.93 3.93 0 0 1-1.924 1.512 4.155 4.155 0 0 1-1.477.246c-.621 0-1.163-.117-1.626-.352a2.697 2.697 0 0 1-1.072-.958 2.598 2.598 0 0 1-.378-1.388c0-.469.099-.888.299-1.257a2.66 2.66 0 0 1 .861-.95 4.212 4.212 0 0 1 1.371-.597 7.164 7.164 0 0 1 1.811-.211h2.188ZM403.604 308.358c0-.205.064-.378.193-.518a.703.703 0 0 1 .545-.22c.234 0 .419.07.554.211a.735.735 0 0 1 .202.527c0 .2-.068.37-.202.51-.135.141-.32.211-.554.211-.229 0-.41-.07-.545-.211a.725.725 0 0 1-.193-.51Z"></path>
</svg>
