<svg width="148" height="30" viewBox="0 0 148 30" fill="none" xmlns="http://www.w3.org/2000/svg">
<path d="M3.37108 6.73153C5.23287 6.73153 6.74215 5.22462 6.74215 3.36576C6.74215 1.5069 5.23287 0 3.37108 0C1.50928 0 0 1.5069 0 3.36576C0 5.22462 1.50928 6.73153 3.37108 6.73153Z" fill="#FF6900"/>
<path fill-rule="evenodd" clip-rule="evenodd" d="M71.6385 9.46382C72.9819 10.0227 74.1388 10.7803 75.1153 11.7366C76.0918 12.693 76.8444 13.8108 77.3917 15.1024C77.9328 16.3941 78.2065 17.7727 78.2065 19.2506V19.3127C78.2065 20.7907 77.9328 22.1693 77.3792 23.4609C76.8319 24.7526 76.0669 25.8828 75.0904 26.8577C74.1139 27.8327 72.9508 28.6027 71.6012 29.1616C70.2515 29.7205 68.7774 29.9999 67.1789 29.9999C65.5867 29.9999 64.1189 29.7205 62.7754 29.1616C61.4319 28.6027 60.2751 27.8451 59.2986 26.8888C58.3221 25.9325 57.5633 24.8147 57.0222 23.523C56.4748 22.2314 56.2074 20.8528 56.2074 19.3748V19.3127C56.2074 17.8348 56.4811 16.4562 57.0346 15.1645C57.5819 13.8728 58.347 12.7426 59.3235 11.7677C60.3 10.7927 61.463 10.0227 62.8127 9.46382C64.1624 8.90493 65.6365 8.62549 67.2349 8.62549C68.8272 8.62549 70.295 8.90493 71.6385 9.46382ZM72.9819 21.865C73.2867 21.0887 73.4422 20.2566 73.4422 19.3686H73.4484V19.3127C73.4484 18.4247 73.2929 17.5926 72.9881 16.8039C72.6834 16.0153 72.248 15.326 71.6882 14.736C71.1285 14.1461 70.4629 13.6803 69.6917 13.3326C68.9205 12.991 68.087 12.8172 67.1789 12.8172C66.246 12.8172 65.4063 12.9848 64.6475 13.3202C63.8887 13.6493 63.2357 14.115 62.6945 14.705C62.1534 15.2949 61.7305 15.978 61.4257 16.7542C61.121 17.5367 60.9655 18.3626 60.9655 19.2506V19.3065C60.9655 20.1945 61.121 21.0266 61.4257 21.8153C61.7305 22.604 62.1659 23.2933 62.7256 23.8832C63.2854 24.4731 63.9447 24.9451 64.7035 25.2866C65.4623 25.6282 66.3082 25.8021 67.2349 25.8021C68.143 25.8021 68.9764 25.6344 69.7477 25.2991C70.5127 24.9699 71.172 24.5042 71.7131 23.9142C72.2542 23.3243 72.6772 22.6412 72.9819 21.865ZM2.32623 8.97321H1.09473L1.09473 29.6397H5.64754L5.64754 12.2893C5.64754 10.4574 4.16104 8.97321 2.32623 8.97321ZM14.3426 8.97321L24.0391 21.6973L24.0391 8.97321H28.5359L28.5359 29.6397H24.6611L14.6349 16.5058L14.6349 29.6397L10.1443 29.6397L10.1443 8.97321H14.3426ZM37.9277 8.97321L43.37 17.7105L48.8122 8.97321L53.7195 8.97321V29.6397H49.2227V16.1456L43.4011 24.9761H43.2829L37.5172 16.2388V29.6397L33.0204 29.6397V8.97321H37.9277ZM88.3134 23.2435L84.0467 11.8919L84.0405 11.8856C83.3874 10.1966 81.7454 8.97942 79.8235 8.97321H79.7924H77.9327L86.2982 29.6087H88.3072H90.3162L98.6816 8.97321L93.7743 8.97321L88.3134 23.2435ZM146.735 10.7867C146.735 10.9854 146.691 11.1406 146.592 11.2648C146.499 11.3828 146.368 11.476 146.206 11.5381L146.797 12.4074H146.169L145.653 11.625H145.64H145.23V12.4074H144.695V9.97937H145.777C146.101 9.97937 146.356 10.0725 146.53 10.2464C146.667 10.3768 146.735 10.5569 146.735 10.7742V10.7867ZM146.088 11.0661C146.157 11.004 146.194 10.9171 146.194 10.8177V10.8053C146.194 10.6873 146.157 10.5941 146.082 10.5383C146.007 10.4824 145.902 10.4513 145.765 10.4513H145.242V11.1655H145.777C145.914 11.1655 146.014 11.1344 146.088 11.0661ZM147.755 10.3642C147.637 10.091 147.475 9.8488 147.27 9.64387C147.065 9.43895 146.822 9.27749 146.549 9.15329C146.269 9.0353 145.97 8.97321 145.653 8.97321C145.336 8.97321 145.031 9.0353 144.751 9.15329C144.471 9.27749 144.229 9.43895 144.023 9.65008C143.818 9.86122 143.656 10.0972 143.538 10.3766C143.42 10.6499 143.364 10.948 143.364 11.2584V11.2709C143.364 11.5814 143.42 11.8732 143.538 12.1527C143.656 12.4259 143.818 12.6681 144.023 12.873C144.229 13.0779 144.471 13.2394 144.745 13.3636C145.025 13.4816 145.323 13.5437 145.64 13.5437C145.958 13.5437 146.262 13.4816 146.542 13.3636C146.822 13.2394 147.065 13.0779 147.27 12.8668C147.475 12.6557 147.637 12.4197 147.755 12.1403C147.873 11.867 147.929 11.5689 147.929 11.2584V11.246C147.936 10.9355 147.873 10.6375 147.755 10.3642ZM147.668 11.2584C147.668 11.5379 147.618 11.7987 147.513 12.0471C147.407 12.2955 147.27 12.5128 147.083 12.6929C146.903 12.873 146.692 13.0221 146.443 13.1276C146.194 13.2332 145.927 13.2891 145.64 13.2891C145.354 13.2891 145.087 13.2394 144.844 13.1338C144.596 13.0283 144.384 12.8854 144.204 12.6991C144.023 12.5191 143.88 12.3017 143.781 12.0533C143.681 11.8049 143.631 11.5441 143.631 11.2709V11.2584C143.631 10.979 143.681 10.7182 143.787 10.4698C143.893 10.2214 144.03 10.004 144.216 9.82396C144.396 9.64387 144.608 9.49484 144.857 9.38927C145.106 9.2837 145.373 9.22781 145.659 9.22781C145.945 9.22781 146.213 9.27749 146.455 9.38306C146.704 9.48863 146.915 9.63145 147.096 9.81775C147.276 9.99784 147.413 10.2152 147.519 10.4636C147.625 10.712 147.674 10.9728 147.674 11.246V11.2584H147.668ZM133.68 8.97321H138.003L146.803 29.6397L142.045 29.6397L140.155 25.0072H131.403L129.513 29.6397H124.873L133.68 8.97321ZM135.614 14.2889L132.865 20.9894H138.363L135.614 14.2889ZM103.029 8.97321H101.798V29.6397H106.351V12.2893C106.351 10.4574 104.864 8.97321 103.029 8.97321ZM122.416 29.6395H110.848V9.01025H112.079C113.914 9.01025 115.4 10.4944 115.4 12.3263V25.0939L124.338 25.0939L122.416 29.6395Z" fill="#0C2340"/>
</svg>
